<?xml version="1.0" standalone="no"?>
<!DOCTYPE svg PUBLIC "-//W3C//DTD SVG 1.1//EN" "http://www.w3.org/Graphics/SVG/1.1/DTD/svg11.dtd" >
<svg xmlns="http://www.w3.org/2000/svg">
<metadata>Generated by IcoMoon</metadata>
<defs>
<font id="rc-font" horiz-adv-x="1024">
<font-face units-per-em="1024" ascent="960" descent="-64" />
<missing-glyph horiz-adv-x="1024" />
<glyph unicode="&#x20;" horiz-adv-x="512" d="" />
<glyph unicode="&#x2610;" glyph-name="checkbox-unselected" d="M73.143 809.019v0-730.572c0-40.674 32.908-73.571 73.571-73.571h730.572c40.674 0 73.571 32.908 73.571 73.571v730.572c0 40.674-32.908 73.571-73.571 73.571h-730.572c-40.674 0-73.571-32.908-73.571-73.571v0zM0 809.019c0 81.028 65.614 146.714 146.714 146.714h730.572c81.028 0 146.714-65.614 146.714-146.714v-730.572c0-81.028-65.614-146.714-146.714-146.714h-730.572c-81.028 0-146.714 65.614-146.714 146.714v730.572z" />
<glyph unicode="&#x2611;" glyph-name="checkbox-selected-readonly" d="M424.155 199.774l404.436 426.943c16.411 16.376 16.776 43.301 0.815 60.138s-42.204 17.212-58.615 0.837l-375.4-395.248-141.68 137.541c-16.136 16.661-42.382 16.746-58.621 0.19s-16.322-43.483-0.186-60.144l170.947-169.747c16.014-16.534 42.016-16.762 58.303-0.511z" />
<glyph unicode="&#xe92d;" glyph-name="icon_webinar_settings" d="M731.42 731.428c0.006-0.374 0.008-0.75 0.008-1.125v-69.601c0-0.809-0.013-1.614-0.040-2.417h182.871c20.212 0 36.597-16.668 36.597-35.914v-110.372h73.143v146.503c0 39.789-32.971 72.926-73.644 72.926h-218.936zM292.58 731.428c-0.006-0.374-0.009-0.75-0.009-1.125v-69.601c0-0.809 0.013-1.614 0.039-2.417h-182.871c-19.847 0-36.597-16.079-36.597-35.914v-367.030c0-19.246 16.385-35.914 36.597-35.914h329.117v-73.143h-365.214c-40.672 0-73.644 33.136-73.644 72.926v439.292c0 40.276 32.911 72.926 73.644 72.926h218.936zM438.863 73.143v73.143h-277.457c-4.556 0-9.113-0.755-13.581-2.189l-115.013-55.207c-18.092-8.684-16.727-15.747 3.108-15.747h402.944zM365.714 695.503c0-19.261 16.062-35.926 35.875-35.926h220.821c20.145 0 35.875 16.085 35.875 35.926 0 19.261-16.062 35.926-35.875 35.926h-220.821c-20.145 0-35.875-16.085-35.875-35.926zM475.429 695.503c0 19.841 15.512 35.926 36.571 35.926 20.198 0 36.571-16.665 36.571-35.926 0-19.841-15.512-35.926-36.571-35.926-20.198 0-36.571 16.665-36.571 35.926zM997.491 309.871l-35.915 6.093c-3.741 12.078-8.551 23.729-14.43 34.846l21.164 29.608c8.979 12.613 7.589 29.822-3.42 40.725l-31.853 31.853c-5.986 5.986-13.896 9.299-22.34 9.299-6.627 0-12.934-2.031-18.278-5.879l-29.715-21.164c-11.544 6.093-23.623 11.116-36.129 14.858l-5.986 35.487c-2.565 15.285-15.713 26.402-31.212 26.402h-45c-15.499 0-28.646-11.116-31.212-26.402l-6.2-36.342c-11.972-3.741-23.623-8.658-34.739-14.644l-29.395 21.164c-5.344 3.848-11.758 5.879-18.385 5.879-8.444 0-16.461-3.314-22.34-9.299l-31.96-31.853c-10.903-10.903-12.399-28.112-3.42-40.725l21.378-30.036c-5.879-11.223-10.582-22.874-14.216-34.953l-35.487-5.986c-15.285-2.565-26.402-15.713-26.402-31.212v-45c0-15.499 11.116-28.646 26.402-31.212l36.342-6.2c3.741-11.972 8.658-23.623 14.644-34.739l-21.057-29.288c-8.979-12.613-7.589-29.822 3.42-40.725l31.853-31.853c5.986-5.986 13.896-9.299 22.34-9.299 6.627 0 12.934 2.031 18.278 5.879l30.036 21.378c10.796-5.665 22.126-10.261 33.777-13.896l5.986-35.915c2.565-15.285 15.713-26.402 31.212-26.402h45.107c15.499 0 28.646 11.116 31.212 26.402l6.093 35.915c12.078 3.741 23.729 8.551 34.846 14.43l29.608-21.164c5.344-3.848 11.758-5.879 18.385-5.879 8.444 0 16.354 3.314 22.34 9.299l31.853 31.853c10.903 10.903 12.399 28.112 3.42 40.725l-21.164 29.715c5.879 11.223 10.796 22.874 14.43 34.846l35.915 5.986c15.285 2.565 26.402 15.713 26.402 31.212v45c0.214 15.499-10.903 28.646-26.188 31.212zM972.849 235.852c0-1.254-0.868-2.315-2.122-2.508l-40.507-6.751c-5.112-0.868-9.162-4.629-10.416-9.548-3.665-14.177-9.259-27.776-16.781-40.41-2.604-4.436-2.411-9.934 0.579-14.177l23.822-33.563c0.675-0.964 0.579-2.411-0.289-3.279l-28.741-28.741c-0.675-0.675-1.35-0.772-1.832-0.772-0.579 0-1.061 0.193-1.447 0.482l-33.466 23.822c-4.147 2.99-9.741 3.183-14.177 0.579-12.634-7.523-26.233-13.117-40.41-16.781-5.015-1.254-8.776-5.401-9.548-10.416l-6.848-40.507c-0.193-1.254-1.254-2.122-2.508-2.122h-40.603c-1.254 0-2.315 0.868-2.508 2.122l-6.751 40.507c-0.868 5.112-4.629 9.162-9.548 10.416-13.792 3.568-27.101 9.066-39.542 16.203-2.025 1.157-4.34 1.736-6.558 1.736-2.604 0-5.304-0.772-7.523-2.411l-33.756-24.015c-0.482-0.289-0.964-0.482-1.447-0.482-0.386 0-1.157 0.096-1.832 0.772l-28.741 28.741c-0.868 0.868-0.964 2.218-0.289 3.279l23.725 33.274c2.99 4.244 3.183 9.837 0.579 14.274-7.523 12.538-13.309 26.137-16.974 40.314-1.35 4.919-5.401 8.68-10.416 9.548l-40.796 6.944c-1.254 0.193-2.122 1.254-2.122 2.508v40.603c0 1.254 0.868 2.315 2.122 2.508l40.218 6.751c5.112 0.868 9.259 4.629 10.513 9.644 3.568 14.177 9.066 27.873 16.492 40.507 2.604 4.436 2.315 9.934-0.675 14.081l-24.015 33.756c-0.675 0.964-0.579 2.411 0.289 3.279l28.741 28.741c0.675 0.675 1.35 0.772 1.832 0.772 0.579 0 1.061-0.193 1.447-0.482l33.274-23.725c4.244-2.99 9.837-3.183 14.274-0.579 12.538 7.523 26.137 13.309 40.314 16.974 4.919 1.35 8.68 5.401 9.548 10.416l6.944 40.796c0.193 1.254 1.254 2.122 2.508 2.122h40.603c1.254 0 2.315-0.868 2.508-2.122l6.751-40.218c0.868-5.112 4.629-9.259 9.645-10.513 14.563-3.665 28.451-9.355 41.375-16.974 4.436-2.604 9.934-2.411 14.177 0.579l33.274 23.918c0.482 0.289 0.964 0.482 1.447 0.482 0.386 0 1.157-0.096 1.832-0.772l28.741-28.741c0.868-0.868 0.964-2.218 0.289-3.279l-23.822-33.466c-2.99-4.147-3.183-9.741-0.579-14.177 7.523-12.634 13.117-26.233 16.781-40.41 1.254-5.015 5.401-8.776 10.416-9.548l40.507-6.848c1.254-0.193 2.122-1.254 2.122-2.508v-40.603h-0.096zM767.893 366.629c-60.927 0-110.417-49.49-110.417-110.417s49.49-110.417 110.417-110.417c60.927 0 110.417 49.49 110.417 110.417s-49.49 110.417-110.417 110.417zM767.893 197.095c-32.619 0-59.117 26.498-59.117 59.117s26.498 59.117 59.117 59.117c32.619 0 59.117-26.498 59.117-59.117s-26.498-59.117-59.117-59.117z" />
<glyph unicode="&#xe92e;" glyph-name="resync" horiz-adv-x="968" d="M867.318 438.486c-1.218-211.101-172.63-381.761-383.901-381.761-76.634 0-148.024 22.454-207.95 61.142l104.727-0.913v100.247l-286.631-1.485-4.455-287.373 97.276-2.228v128.464c81.074-63.617 184.569-102.022 297.033-102.022 266.981 0 483.411 216.431 483.411 483.411 0 0.885-0.002 1.77-0.007 2.655l-99.503-0.136zM212.374 711.008c69.574 69.403 165.598 112.319 271.645 112.319 78.223 0 150.992-23.349 211.718-63.459l-109.852 0.892 1.485-99.504h285.146l4.455 287.373-96.534 2.228v-124.751c-81.080 63.633-184.588 102.049-297.067 102.049-266.981 0-483.411-216.431-483.411-483.411 0-2.2 0.015-4.397 0.044-6.59l99.5 0.333c-0.003 0.554-0.005 1.209-0.005 1.864 0 105.838 43.163 201.595 112.845 270.629z" />
<glyph unicode="&#xe92f;" glyph-name="unassign" horiz-adv-x="1020" d="M207.163-63.541c-0.002 0-0.004 0-0.006 0-114.413 0-207.163 92.75-207.163 207.163 0 0.554 0.002 1.107 0.007 1.66 0.357 57.847 24.082 110.169 62.213 147.987l102.414 102.414c37.832 38.145 90.154 61.87 148.018 62.227l0.068-105.55c-28.921-0.020-55.098-11.757-74.042-30.719l-102.401-102.401c-18.963-18.946-30.7-45.122-30.72-74.039-0.008-0.465-0.012-1.009-0.012-1.554 0-27.655 11.134-52.71 29.165-70.926 18.433-18.018 43.691-29.14 71.546-29.14 0.321 0 0.642 0.001 0.962 0.004 28.872 0.020 55.049 11.756 73.993 30.719l102.401 102.401c16.395 16.39 27.342 38.228 29.894 62.565l105.589-11.365c-5.737-49.588-27.828-93.174-60.654-126.032l-102.398-102.398c-37.832-38.145-90.154-61.87-148.018-62.227h-0.068zM705.772 431.13h-21.268l10.24 110.277c3.345-0.379 7.222-0.595 11.15-0.595 28.851 0 54.979 11.663 73.925 30.531l102.396 102.396c18.546 18.546 30.017 44.167 30.017 72.468 0 56.601-45.884 102.485-102.485 102.485-28.3 0-53.922-11.471-72.468-30.017l-101.612-102.4c-19.039-18.972-30.819-45.217-30.819-74.213 0-1.602 0.036-3.196 0.107-4.781l-106.347 0.225c-0.005 0.561-0.008 1.225-0.008 1.889 0 58.392 23.797 111.227 62.222 149.334l102.414 102.414c37.798 37.798 90.015 61.176 147.692 61.176 115.355 0 208.868-93.514 208.868-208.868 0-57.677-23.378-109.895-61.176-147.692l-102.4-102.4c-38.121-38.436-90.953-62.231-149.343-62.231-0.389 0-0.778 0.001-1.166 0.003zM389.12 732.816c-0.118-0.002-0.257-0.003-0.396-0.003-11.538 0-21.421 7.088-25.532 17.148l-38.663 100.221c-0.616 2.173-0.97 4.669-0.97 7.247 0 15.226 12.343 27.569 27.569 27.569 10.686 0 19.952-6.080 24.528-14.969l38.669-100.192c1.132-2.899 1.787-6.256 1.787-9.765 0-11.618-7.186-21.557-17.355-25.615zM697.108-68.267c-0.118-0.002-0.257-0.003-0.396-0.003-11.538 0-21.421 7.088-25.532 17.148l-66.233 172.689c-1.872 3.622-2.969 7.906-2.969 12.445 0 15.226 12.343 27.569 27.569 27.569 12.648 0 23.306-8.517 26.553-20.128l66.212-171.911c1.132-2.899 1.787-6.256 1.787-9.765 0-11.618-7.186-21.557-17.355-25.615zM167.778 570.551c-1.658-0.354-3.562-0.557-5.514-0.557s-3.856 0.203-5.693 0.589l-69.137 33.052c-10.681 3.961-18.155 14.064-18.155 25.912 0 15.226 12.343 27.569 27.569 27.569 4.617 0 8.969-1.135 12.793-3.141l69.166-30.648c9.743-4.394 16.403-14.023 16.403-25.207 0-15.177-12.264-27.49-27.423-27.569zM914.511 238.933c-1.658-0.354-3.562-0.557-5.514-0.557s-3.856 0.203-5.693 0.589l-91.98 42.504c-9.664 4.457-16.252 14.062-16.252 25.206 0 15.283 12.39 27.673 27.673 27.673 4.14 0 8.067-0.909 11.593-2.538l91.989-40.889c8.866-4.703 14.802-13.876 14.802-24.435 0-14.891-11.807-27.025-26.569-27.551zM948.382-20.218c-0.117-0.002-0.256-0.003-0.395-0.003-7.516 0-14.329 3.007-19.302 7.884l-245.756 245.756c-5.14 5.14-8.32 12.242-8.32 20.086 0 15.688 12.718 28.406 28.406 28.406 7.844 0 14.946-3.179 20.086-8.32l245.76-245.76c5.659-5.071 9.204-12.402 9.204-20.561 0-15.226-12.343-27.569-27.569-27.569-0.744 0-1.481 0.029-2.211 0.087zM308.775 619.388c-0.117-0.002-0.256-0.003-0.395-0.003-7.516 0-14.329 3.007-19.302 7.884l-213.46 213.46c-4.973 5.070-8.043 12.023-8.043 19.692 0 15.535 12.594 28.129 28.129 28.129 7.866 0 14.977-3.228 20.082-8.432l212.681-212.681c5.625-5.068 9.145-12.377 9.145-20.509 0-15.226-12.343-27.569-27.569-27.569-0.446 0-0.89 0.011-1.331 0.032z" />
<glyph unicode="&#xe930;" glyph-name="apple" d="M788.729 411.273c0.992 79.456 42.533 152.894 110.132 194.665-42.68 61.317-111.824 98.862-186.49 101.279-78.551 8.224-154.567-47.157-194.665-47.157-40.785 0-102.199 46.33-168.629 44.919-87.429-2.79-166.934-51.402-209.265-127.947-90.376-157.094-22.97-388.066 63.607-514.991 43.311-62.241 93.923-131.402 160.16-129.163 64.823 2.629 89.010 41.463 167.264 41.463s100.257-41.463 167.849-39.904c69.495 1.068 113.391 62.436 155.152 125.216 31.252 44.357 55.264 93.391 71.148 145.269-82.684 35.24-136.323 116.464-136.269 206.349v0zM661.079 790.877c37.935 45.772 56.608 104.485 52.070 163.762-57.999-6.12-111.535-33.939-149.895-77.864-38.024-43.397-57.275-100.106-53.537-157.678 58.773-0.584 114.543 25.888 151.26 71.78h0.096z" />
<glyph unicode="&#xe931;" glyph-name="play" d="M512-68.267c282.776 0 512 229.225 512 512s-229.225 512-512 512c-282.776 0-512-229.225-512-512s229.225-512 512-512v0zM512-4.267c-247.424 0-448 200.576-448 448s200.576 448 448 448c247.424 0 448-200.576 448-448s-200.576-448-448-448v0zM392.872 710.216l371.905-264.873-371.905-264.873v529.763z" />
<glyph unicode="&#xe932;" glyph-name="Preview" d="M512 568.076c-73.143 0-124.343-58.514-124.343-124.343s58.514-124.343 124.343-124.343 124.343 58.514 124.343 124.343c7.314 65.829-51.2 131.657-124.343 124.343zM512 231.619c-124.343 0-212.114 95.086-212.114 212.114s87.771 212.114 212.114 212.114 212.114-95.086 212.114-212.114c0-117.029-87.771-212.114-212.114-212.114zM512 787.504c-336.457 0-512-343.771-512-343.771s131.657-343.771 512-343.771c343.771 0 512 336.457 512 336.457s-168.229 351.086-512 351.086z" />
<glyph unicode="&#xe933;" glyph-name="windows" d="M915.661 822.172v-350.841c-19.836-0.309-39.671-0.571-59.497-0.93-25.557-0.452-51.109-0.992-76.653-1.455-19.317-0.357-38.624-0.617-57.94-0.971-25.923-0.464-51.844-0.994-77.767-1.461-18.943-0.349-37.885-0.616-56.829-0.964-25.996-0.471-51.997-0.977-77.988-1.474-12.627-0.24-25.253-0.479-37.88-0.71-1.311-0.024-2.619-0.006-3.954-0.006v299.536c1.303 0.178 2.454 0.357 3.627 0.5 9.659 1.301 19.324 2.597 28.998 3.883 9.6 1.27 19.182 2.541 28.782 3.792 9.667 1.266 19.335 2.53 29 3.804 9.745 1.29 19.469 2.597 29.213 3.887 8.71 1.167 17.421 2.312 26.14 3.464 9.664 1.276 19.328 2.551 28.998 3.834 8.65 1.138 17.281 2.27 25.929 3.416 9.663 1.28 19.324 2.59 28.998 3.863s19.337 2.525 29.001 3.796c9.812 1.297 19.619 2.604 29.427 3.91 8.564 1.133 17.132 2.262 25.71 3.401 9.745 1.294 19.469 2.597 29.213 3.883 9.745 1.301 19.473 2.597 29.219 3.883 9.664 1.276 19.33 2.551 28.998 3.821s19.326 2.569 28.998 3.834c6.076 0.787 12.17 1.523 18.246 2.281zM915.661 418.396v-358.702c-1.037 0.073-2.084 0.095-3.122 0.215-6.272 0.746-12.558 1.525-18.832 2.292-8.269 1.011-16.545 2.016-24.805 3.026-8.494 1.039-16.983 2.101-25.471 3.133-8.346 1.024-16.695 2.026-25.039 3.034-8.494 1.033-16.986 2.093-25.471 3.127-8.346 1.024-16.692 2.026-25.039 3.044-8.494 1.033-16.987 2.083-25.471 3.122-8.346 1.024-16.692 2.026-25.038 3.047-8.494 1.033-16.989 2.073-25.471 3.122-8.411 1.029-16.837 2.072-25.246 3.114-8.347 1.024-16.696 2.028-25.044 3.055-8.495 1.033-16.989 2.074-25.471 3.122-8.347 1.024-16.692 2.036-25.042 3.051s-16.703 1.994-25.044 3.026c-9.522 1.167-19.038 2.385-28.568 3.55s-19.059 2.277-28.584 3.437c-9.745 1.178-19.496 2.383-29.236 3.591-4.185 0.514-8.364 1.069-12.548 1.596v304.109h3.217c147.468 0 294.923 0.001 442.392-0.006 0.977 0 1.931-0.073 2.908-0.112zM422.289 777.317c-0.922-104.912-1.835-209.371-2.742-313.967h-311.211v270.773c104.552 14.379 209.052 28.759 313.967 43.196zM422.289 104.549c-104.77 14.406-209.352 28.777-313.967 43.152v267.933c104.671 0.96 209.22 1.918 313.967 2.881v-313.967z" />
<glyph unicode="&#xe934;" glyph-name="download-meetings-desktop-app" d="M512 155.733c35.346 0 64 28.654 64 64s-28.654 64-64 64c-35.346 0-64-28.654-64-64s28.654-64 64-64zM512 315.733c44.475 0.019 89.417 0.017 109.714 0 101.547 0.027 178.447 0.007 274.286 0-4.943 0.091-0.297 4.793 0 0-0.012 20.788-0.002 23.116 0 0 0 159.518 0.002 293.589 0 448-0.010-4.639-4.517-0.016 0 0-262.735 0.004-505.423 0.004-768 0 4.725-0.012 0.020-4.591 0 0-0.006-155.493-0.004-291.561 0-448 0.018 4.622 4.566 0.009 0 0 141.174-0.007 262.353 0.001 384 0zM618.664 113.078v0c1.456-12.724 13.32-13.63 0 0 68.421-22.669 98.274-46.515 106.665-106.665 13.082 6.494 9.051 0.056 0 0-58.306-0.025-111.339 0.007-159.997 0-89.425 0.029-174.477 0.044-266.662 0-10.019 0.086-13.439 5.622 0 0 13.452 71.555 53.963 91.069 106.665 106.665 1.808-12.444 4.808-12.373 0 0 8.417-12.141 9.011-11.78 0 0v0c6.653 19.857 3.121 19.855 0 0-95.471 19.872-190.528 19.754-266.662 0-70.542 20.070-106.632 56.304-106.665 106.665-0.007 184.351-0.011 367.83 0 533.325 0.037 70.892 36.191 106.592 106.665 106.665 243.931-0.014 504.761-0.004 746.655 0 69.627 0.002 106.621-36.514 106.665-106.665 0.010-164.504 0.012-348.972 0-533.325-0.048-50.284-36.966-86.702-106.665-106.665-75.181 19.868-169.237 19.912-266.662 0-0.912 19.912-5.193 19.912 0 0z" />
<glyph unicode="&#xe935;" glyph-name="icon_d3_subscribe" d="M117.137 75.654l332.692 364.208 62.171-51.705 62.321 51.705 67.375-75.121 46.719 37.853-66.701 77.71 329.717 272.652v-350.362h72.568v370.96c0 60.172-44.557 109.036-108.92 109.036h-804.669c-58.052 0-110.411-52.326-110.411-109.036v-653.677c0-74.427 42.71-113.752 117.137-113.752h394.863c0 0 0 13.708 0 69.528h-394.863zM512 480.304l-402.286 329.143h804.571l-402.286-329.143zM73.143 750.933l329.143-270.629-329.143-351.086v621.714zM599.771 143.847c0 120.198 91.916 212.114 212.114 212.114s212.114-91.916 212.114-212.114c0-120.198-91.916-212.114-212.114-212.114s-212.114 91.916-212.114 212.114zM658.286 143.847c0-84.48 69.12-153.6 153.6-153.6s153.6 69.12 153.6 153.6c0 84.48-69.12 153.6-153.6 153.6s-153.6-69.12-153.6-153.6zM877.969 78.019h-99.152v146.286h55.661v-95.464h43.491v-50.821z" />
<glyph unicode="&#xe936;" glyph-name="logout" horiz-adv-x="1310" d="M484.996 497.741h755.038v-108.017h-755.038v108.017zM1041.283 174.771c-29.5 0.428-53.25 24.442-53.25 54.003 0 14.727 5.894 28.077 15.452 37.82l176.059 177.139-176.068 176.068c-9.814 9.814-15.883 23.371-15.883 38.346 0 29.95 24.279 54.229 54.229 54.229 14.975 0 28.532-6.070 38.346-15.883l216.034-216.034c9.867-9.789 15.976-23.354 15.976-38.346s-6.108-28.557-15.972-38.342l-216.037-216.037c-9.4-8.131-21.744-13.085-35.245-13.085-1.281 0-2.552 0.045-3.811 0.132zM702.11 280.628v-186.869c0-29.828-24.18-54.008-54.008-54.008h-486.076c-29.828 0-54.008 24.18-54.008 54.008v699.949c0 29.828 24.18 54.008 54.008 54.008h486.076c29.828 0 54.008-24.18 54.008-54.008v-186.869h108.017v186.869c0 89.484-72.541 162.025-162.025 162.025h-486.076c-89.484 0-162.025-72.541-162.025-162.025v-699.949c0-89.484 72.541-162.025 162.025-162.025h486.076c89.484 0 162.025 72.541 162.025 162.025v186.869h-108.017z" />
<glyph unicode="&#xe937;" glyph-name="download-meetings-mobile-app" d="M511.942 859.72c26.065 0.083 52.458 0.233 96 0-7.912-0.079-0.080 2.913 0 0 0.076 28.64-7.644 32.043 0 32.046-69.316-0.098-121.712 0.052-192 0 5.909-0.038-0.703-6.13 0-32.046 1.016 2.222 8.664-0.022 0 0 43.664 0.178 69.667 0.083 96 0v0zM479.997 59.746c-14.561-0.302-30.503-12.933-32.003-32.006-1.416-14.046 11.011-29.691 32.003-32.006 20.735-0.372 43.287-0.35 64.006 0 21.055 2.389 33.413 17.944 32.003 32.006-1.494 19.143-17.377 31.709-32.003 32.006-13.341 0.058-22.494-0.039-32.003 0-9.036-0.039-18.429 0.061-32.003 0zM736 795.733h-448v-672h448v672zM831.941 17.113c-0.12-21.786-0.296-31.928 0-42.666-9.183-25.214-33.261-42.582-42.666-42.666-191.434-0.002-363.262-0.035-554.654 0-16.586 0.070-42.567 26.081-42.666 42.666-0.040 128.709 0.017 237.953 0 341.325 0.017 194.998 0.048 384.126 0 554.654-0.008 53.927 18.373 78.275 42.666 85.331 12.403-0.086 17.373-0.039 42.666 0 149.309 0.004 319.044 0.016 469.322 0 60.15-0.037 85.228-24.663 85.331-85.331-0.036-128.546-0.068-277.732 0-426.657-0.007-146.376 0.039-292.491 0-426.657z" />
<glyph unicode="&#xe938;" glyph-name="User-groups" d="M679.796 228.912c14.564 1.709 27.144 4.279 40.485 8.091 0 0 44.463 7.667 67.585 16.337 12.617 6.204 19.012 14.199 19.012 26.564 0 18.358-3.12 38.64-8.829 55.765-13.726 34.395-29.911 56.209-55.616 70.489-19.251 8.63-19.251 8.63-37.147 16.584-16.465 7.318-16.465 7.318-32.929 14.635-1.432 0.636-9.786 2.742-9.786 2.742-5.152 0-9.314-1.664-13.1-4.188-3.076-2.294-13.866-13.066-17.511-16.712-17.323-15.108-35.275-20.094-54.636-14.286-15.571 4.45-27.794 12.952-35.788 24.945 0 0-0.037 0.309-0.212 0.839-2.733-6.485-8.109-16.359-15.557-24.367 7.575-3.367 26.156-11.625 40.072-17.81 17.896-7.954 23.248-9.687 43.837-25.471 30.975-17.208 45.505-43.776 61.458-83.845 6.336-19.008 8.494-31.378 8.659-50.312zM511.060 688.65c1.687 2.437 3.46 4.817 5.312 7.13 7.687 10.251 16.024 14.82 32.484 20.729 4.874 1.736 6.954 2.495 12.276 4.317 33.592 6.719 60.041 4.574 87.033-10.485 13.801-9.201 19.843-14.144 25.938-23.286 12.836-19.254 18.77-38.541 18.77-62.48v-15.907c0-1.816 10.294-8.577 13.699-21.631 0.729-2.819 2.038-12.595 2.038-12.595-3.049-21.346-12.127-42.804-24.774-58.612 0 0-1.567-1.212-2.787-6.288-6.484-16.209-15.877-31.083-27.635-42.84-29.699-29.699-68.057-33.201-101.012-12.316 7.807 14.177 10.704 21.425 21.312 49.461l2.671 16.132c0 8.034-0.404 13.147-2.671 20.707-3.714 12.381-6.589 22.908-6.589 22.908 0 28.462-4.152 56.913-19.602 84.842-12.607 22.79-16.1 25.203-36.463 40.215zM546.154 183.292c22.982 2.467 45.574 7.944 68.696 16.615 12.617 6.204 19.012 14.199 19.012 26.564 0 17.884-1.668 28.060-7.503 45.567-13.726 34.395-29.911 56.209-55.616 70.489-19.617 8.792-19.617 8.792-37.878 16.908-17.353 7.712-17.353 7.712-34.706 15.425-0.178 0.079-7.278 1.627-7.278 1.627-5.152 0-9.314-1.664-13.1-4.188-3.076-2.294-17.511-16.712-17.511-16.712-17.323-15.108-35.275-20.094-54.636-14.286-15.571 4.45-27.794 12.952-35.788 24.945 0 0-0.493 4.114-6.384 8.041-8.074 5.383-19.084 1.115-19.084 1.115-32.365-12.137-46.89-18.037-65.269-27.227-16.885-8.443-29.152-19.346-42.805-36.412-19.394-28.975-28.724-53.172-31.504-83.748-0.070-13.908 6.326-21.903 17.306-27.393 7.769-2.523 24.106-8.249 28.56-9.81 11.581-4.009 20.24-6.378 29.677-7.726 41.997-7.42 88.981-10.777 140.278-10.777 48.295 0 89.952 3.359 125.531 10.984zM532.726 548.046c-2.236 7.455-6.798 13.875-13.831 18.564 1.706-0.706 2.287 14.983 2.287 14.983 0 23.94-5.934 43.227-18.77 62.48-6.095 9.142-12.137 14.086-25.938 23.286-29.83 15.062-56.338 17.155-89.685 10.485-5.321-1.822-7.402-2.58-12.276-4.317-16.46-5.909-24.796-10.477-32.484-20.729-12.442-15.54-21.322-34.107-24.387-52.497-2.403-9.387-2.883-18.515-2.883-39.92 0 4.567-7.954-5.816-7.954-15.907-2.974-25.826 5.511-48.969 25.314-72.072l0.889-0.96c0.137-0.137 14.476-33.035 26.512-45.072 36.222-36.222 84.066-38.136 119.551-2.651 11.757 11.757 21.151 26.631 27.635 42.84 1.219 5.076 0.464 3.817 1.53 4.882 13.904 17.212 22.982 38.67 26.031 60.016 0 0-0.103 11.792-1.542 16.588zM958.984 443.733v0c0 247.18-199.804 446.984-446.984 446.984-246.168 0-446.984-201.633-446.984-446.984 0-247.18 199.804-446.984 446.984-446.984s446.984 199.804 446.984 446.984v0 0zM995.556 443.733c0-267.378-216.178-483.556-483.556-483.556s-483.556 216.178-483.556 483.556c0 264.532 216.178 483.556 483.556 483.556s483.556-216.178 483.556-483.556v0 0zM512 4.876v0c242.374 0 438.857 196.483 438.857 438.857s-196.483 438.857-438.857 438.857c-242.374 0-438.857-196.483-438.857-438.857s196.483-438.857 438.857-438.857v0zM512-68.267v0c-282.77 0-512 229.23-512 512s229.23 512 512 512c282.77 0 512-229.23 512-512s-229.23-512-512-512v0z" />
<glyph unicode="&#xe939;" glyph-name="download-meetings-outlook-plugin" d="M414.91 455.147c-0.946 11.359-1.478 22.768-2.926 34.065-2.838 22.148-9.286 43.244-20.95 62.571-10.438 17.297-23.792 31.891-41.568 42.24-18.274 10.639-38.14 14.523-59.2 13.502-18.075-0.876-35.287-4.888-51.274-13.354-20.684-10.953-35.823-27.364-47.434-47.135-15.165-25.822-21.342-54.055-22.983-83.481-0.825-14.793-0.362-29.547 1.553-44.243 3.155-24.219 10.504-47.009 24.171-67.604 11.497-17.324 25.929-31.63 44.861-41.055 19.791-9.853 40.907-13.169 62.936-11.587 19.129 1.374 36.623 7.281 52.237 18.24 21.629 15.181 36.366 35.61 46.177 59.617 10.248 25.075 13.72 51.345 14.4 78.225v0zM572.877 684.818v-3.47c0-45.737-2.238-106.835-2.3-152.572-0.003-2.108 0.617-3.449 2.3-4.783 29.584-23.452 59.113-46.971 88.655-70.474 6.624-5.27 13.255-10.531 20.017-15.902 2.077 1.617 4.072 3.152 6.048 4.709 63.214 49.822 126.424 99.647 189.637 149.469 24.572 19.367 49.154 38.721 73.696 58.124 0.867 0.685 1.901 1.813 1.932 2.764 0.184 5.516 2.343 26.403 2.343 32.134h-382.329zM952.816 618.29c-1.158-0.874-1.991-1.478-2.797-2.114-13.728-10.815-27.454-21.634-41.179-32.453-56.551-44.572-113.102-89.144-169.653-133.717-15.51-12.224-31.002-24.472-46.532-36.672-8.658-6.801-13.663-6.779-22.248 0.047-32.281 25.668-64.549 51.353-96.825 77.027-0.825 0.656-1.697 1.256-2.767 2.043v-267.347h382.002v393.183zM32 791.635c179.368 33.225 358.763 66.454 538.46 99.739l1.643-164.801h4.1c120.239 0 240.477-0.009 360.716 0.013 14.137 0.003 26.416-4.221 35.988-14.802 7.711-8.523 11.175-18.634 11.177-29.928 0.019-81.965-1.633-191.010-1.633-272.975 0-56.372 0.004-112.744-0.002-169.117-0.002-21.313-13.043-38.036-34.064-43.344-3.693-0.933-7.638-1.266-11.466-1.268-120.679-0.064-241.358-0.052-362.037-0.052h-4.212v-192.033c-179.674 33.27-359.027 66.481-538.671 99.746v688.823zM349.699 456.591c-0.24-22.828-1.889-40.76-8.449-57.932-4.554-11.923-11.072-22.623-21.263-30.73-21.451-17.065-53.246-14.578-72.139 5.488-10.997 11.679-17.485 25.673-20.85 40.999-5.833 26.567-5.815 53.198 0.897 79.646 3.553 14 9.68 26.842 19.578 37.712 16.167 17.755 43.582 22.961 64.324 12.194 9.967-5.174 17.071-13.191 22.64-22.623 7.313-12.387 11.178-25.929 13.025-39.993 1.281-9.749 1.788-19.597 2.237-24.761z" />
<glyph unicode="&#xe93a;" glyph-name="company-info" d="M876.855 77.511v805.171c0 40.535-33.294 73.415-72.73 73.438l-585.201 0.344c-40.168 0.024-72.73-33.342-72.73-73.388v-805.565h-36.403c-20.105 0-36.403-15.67-36.403-36.95v-72.528c0-20.407 16.192-36.95 36.232-36.95 0 0 476.665 0 714.84 0 29.638 0 88.879 0 88.879 0 20.203 0 36.581 15.67 36.581 36.95v72.528c0 20.407-16.946 36.95-36.533 36.95h-36.533zM767.224 882.79c20.194 0 36.565-16.821 36.565-36.697v-768.655h-219.198v109.642c0 40.534-32.431 73.393-73.066 73.393-40.353 0-73.066-32.723-73.066-73.393v-109.642h-219.198v768.655c0 20.267 16.863 36.697 36.565 36.697h511.398zM803.789 370.441h-584.528v73.214h584.528v-73.214zM585.285 590.099v-73.066h-146.428v73.066h146.428zM438.857 772.533c0 20.387 15.655 36.914 36.914 36.914h72.458c20.387 0 36.914-15.655 36.914-36.914v-109.372h-146.286v109.372z" />
<glyph unicode="&#xe93b;" glyph-name="groups-others" horiz-adv-x="1115" d="M1038.455 206.821h-15.215v271.596h-422.229v192.475h159.762c42.016 0 76.077 34.061 76.077 76.077v127.81c0 42.016-34.061 76.077-76.077 76.077h-407.774c-42.016 0-76.077-34.061-76.077-76.077v-127.81c0-42.016 34.061-76.077 76.077-76.077h163.566v-192.475h-416.143v-271.596h-25.105c-42.016 0-76.077-34.061-76.077-76.077v-127.81c0-42.016 34.061-76.077 76.077-76.077h128.571c42.016 0 76.077 34.061 76.077 76.077v127.81c0 42.016-34.061 76.077-76.077 76.077h-22.062v187.15h334.74v-187.15h-23.584c-42.016 0-76.077-34.061-76.077-76.077v-127.81c0-42.016 34.061-76.077 76.077-76.077h127.81c42.016 0 76.077 34.061 76.077 76.077v127.81c0 42.016-34.061 76.077-76.077 76.077h-19.78v187.15h336.262v-187.15h-27.388c-42.016 0-76.077-34.061-76.077-76.077v-127.81c0-42.016 34.061-76.077 76.077-76.077h127.81c42.016 0 76.077 34.061 76.077 76.077v127.81c0 0.001 0 0.002 0 0.004 0 41.749-33.629 75.643-75.276 76.073z" />
<glyph unicode="&#xe93c;" glyph-name="phone-numbers" horiz-adv-x="1020" d="M859.95 133.237h-5.244c-60.589 49.934-130 92.427-204.939 124.483l-15.292 2.112c-20.908-5.75-38.424-17.919-50.766-34.222-8.037-13.173-22.056-21.682-38.062-21.682-4.657 0-9.145 0.72-13.36 2.055l-7.178 4.409c-45.978 33.115-85.665 70.9-119.681 113.418l-45.117 54.377c-31.863 40.855-63.048 86.847-91.155 134.859-4.611 9.512-5.411 13.613-5.411 17.9 0 16.207 11.438 29.743 26.681 32.975l9.209 3.785c17.346 8.984 30.897 23.261 38.737 40.665-14.564 84.829-40.633 160.253-76.754 229.607-5.201 13.471-22.389 25.801-42.457 25.801-3.333 0-6.586-0.34-9.727-0.987-93.063-3.318-172.266-60.62-207.348-141.501-16.318-110.139 63.834-277.185 208.407-447.976l52.436-63.672c137.832-164.050 299.634-270.42 421.735-277.162 74.909 0 149.817 88.392 185.024 149.817 4.74 6.859 7.572 15.352 7.572 24.507 0 2.991-0.302 5.911-0.878 8.732-3.638 7.294-9.286 13.422-16.242 17.593zM978.306 593.925h-93.636v139.33h97.381c20.636 2.855 36.356 20.379 36.356 41.574s-15.719 38.719-36.136 41.549l-97.601 0.025v98.13c-2.855 20.636-20.379 36.356-41.574 36.356s-38.719-15.719-41.549-36.136l-0.025-96.103h-141.577v95.883c0.238 1.68 0.375 3.621 0.375 5.593 0 23.168-18.781 41.949-41.949 41.949s-41.949-18.781-41.949-41.949c0-1.972 0.136-3.913 0.399-5.813l-0.025-95.663h-96.632c-1.68 0.238-3.621 0.375-5.593 0.375-23.168 0-41.949-18.781-41.949-41.949s18.781-41.949 41.949-41.949c1.972 0 3.913 0.136 5.813 0.399l97.161-0.025v-141.577h-97.381c-1.68 0.238-3.621 0.375-5.593 0.375-23.168 0-41.949-18.781-41.949-41.949s18.781-41.949 41.949-41.949c1.972 0 3.913 0.136 5.813 0.399l97.161-0.025v-97.381c-0.238-1.68-0.375-3.621-0.375-5.593 0-23.168 18.781-41.949 41.949-41.949s41.949 18.781 41.949 41.949c0 1.972-0.136 3.913-0.399 5.813l0.025 99.409h137.083v-97.381c2.855-20.636 20.379-36.356 41.574-36.356s38.719 15.719 41.549 36.136l0.025 97.601h97.381c17.92 5.040 30.838 21.237 30.838 40.451s-12.918 35.411-30.543 40.379zM797.776 593.925h-137.832v139.33h137.083v-139.33z" />
<glyph unicode="&#xe93d;" glyph-name="phones-n-devices" d="M899.060 955.733h-847.33c-28.57 0-51.73-22.693-51.73-50.687v-922.627c0-27.993 23.16-50.687 51.73-50.687h847.33c28.57 0 51.73 22.693 51.73 50.687v920.060c0.718 13.882-4.413 27.444-14.193 37.512s-23.351 15.759-37.537 15.741v0 0zM73.143 882.59h219.429v-877.714h-219.429v877.714zM877.714 5.517h-512v877.074h512v-877.074zM438.857 792.229c0 9.509 7.638 17.218 16.664 17.218h332.386c9.203 0 16.664-7.301 16.664-17.218v-184.992c0-9.509-7.638-17.218-16.664-17.218h-332.386c-9.203 0-16.664 7.301-16.664 17.218v184.992zM768 370.59c20.198 0 36.571 16.374 36.571 36.571s-16.374 36.571-36.571 36.571c-20.198 0-36.571-16.374-36.571-36.571s16.374-36.571 36.571-36.571v0zM768 224.304c20.198 0 36.571 16.374 36.571 36.571s-16.374 36.571-36.571 36.571c-20.198 0-36.571-16.374-36.571-36.571s16.374-36.571 36.571-36.571v0zM768 78.019c20.198 0 36.571 16.374 36.571 36.571s-16.374 36.571-36.571 36.571c-20.198 0-36.571-16.374-36.571-36.571s16.374-36.571 36.571-36.571v0zM621.714 370.59c20.198 0 36.571 16.374 36.571 36.571s-16.374 36.571-36.571 36.571c-20.198 0-36.571-16.374-36.571-36.571s16.374-36.571 36.571-36.571v0zM621.714 224.304c20.198 0 36.571 16.374 36.571 36.571s-16.374 36.571-36.571 36.571c-20.198 0-36.571-16.374-36.571-36.571s16.374-36.571 36.571-36.571v0zM621.714 78.019c20.198 0 36.571 16.374 36.571 36.571s-16.374 36.571-36.571 36.571c-20.198 0-36.571-16.374-36.571-36.571s16.374-36.571 36.571-36.571v0zM512 407.162c0 20.198-16.374 36.571-36.571 36.571s-36.571-16.374-36.571-36.571c0-20.198 16.374-36.571 36.571-36.571s36.571 16.374 36.571 36.571zM475.429 224.304c20.198 0 36.571 16.374 36.571 36.571s-16.374 36.571-36.571 36.571c-20.198 0-36.571-16.374-36.571-36.571s16.374-36.571 36.571-36.571v0zM475.429 78.019c20.198 0 36.571 16.374 36.571 36.571s-16.374 36.571-36.571 36.571c-20.198 0-36.571-16.374-36.571-36.571s16.374-36.571 36.571-36.571v0z" />
<glyph unicode="&#xe93e;" glyph-name="auto-receptionist" horiz-adv-x="1027" d="M970.14 58.071c-49.311 47.832-110.431 83.771-178.557 103.013-69.464 23.99-135.957 53.912-135.957 53.912-45.881-85.112-106.39-132.987-149.61-132.987-71.148 0-144.956 124.343-144.956 124.343-19.948-28.592-144.291-57.184-220.758-80.457-29.454-9.744-54.369-26.508-73.651-48.359-29.934-42.071-52.866-91.185-66.025-144.159l1027.365-2.973c-10.478 48.786-30.622 91.696-58.439 128.482zM205.465 435.754c4.937 0.51 9.444 1.928 13.496 4.086l-0.197-23.369c0-25.706 20.839-46.545 46.545-46.545 16.639 0.116 31.16 9.070 39.115 22.398 0.863-5.563 2.028-10.736 3.616-15.719 35.067-111.738 112.864-188.206 199.306-188.206s175.543 93.756 203.47 209.455c7.039-17.322 23.738-29.314 43.238-29.314 25.259 0 45.818 20.119 46.527 45.207l0.001 25.998c3.461-1.908 7.491-3.306 11.765-3.964l4.859-0.026c18.768 0.194 34.196 14.243 36.552 32.395 4.83 25.899 7.581 55.48 7.581 85.704 0 112.504-38.118 216.105-102.143 298.593-57.336 63.227-141.098 103.477-234.26 103.477-3.847 0-7.678-0.069-11.492-0.205-3.87 0.23-9.053 0.352-14.264 0.352-92.673 0-176.327-38.612-235.754-100.625-77.908-84.563-111.82-218.215-97.856-385.779 2.055-19.174 18.148-33.976 37.697-33.976 0.773 0 1.542 0.023 2.304 0.069zM698.182 480.969c0-6.649 0-13.299-3.99-20.613s0-12.634-4.655-21.943c-9.588-4.813-16.278-14.158-17.279-25.146-22.617-108.506-106.399-183.644-166.908-183.644-63.733 8.578-115.978 50.426-139.214 107.217 2.763 0.895 6.472 0.741 10.217 0.741s7.453 0.155 11.119 0.458l24.122-0.032c7.829-21.11 27.786-35.885 51.197-35.906h35.909c1.815-0.212 3.918-0.332 6.049-0.332 30.48 0 55.19 24.709 55.19 55.19s-24.709 55.19-55.19 55.19c-2.131 0-4.234-0.121-6.302-0.356l-35.653 0.023c-23.414-0.021-43.371-14.797-51.077-35.529l-24.725-0.377c-2.612-0.643-5.611-1.011-8.696-1.011-16.533 0-30.593 10.585-35.773 25.348l-0.081 6.25c-0.353 3.488-0.555 7.539-0.555 11.636s0.201 8.148 0.595 12.142c-2.127 6.866-8.3 12.37-15.896 13.446-0.102 15.305-6.087 36.583-8.082 51.212v15.958c-0.461 1.185-0.727 2.556-0.727 3.99s0.267 2.805 0.754 4.067c6.28 6.673 10.151 15.768 10.151 25.767 0 2.858-0.316 5.643-0.916 8.32-1.559 8.769-2.478 19.155-2.478 29.756 0 78.641 50.563 145.473 120.952 169.758 1.095-0.82 1.001-2.204 1.001-3.611s0.095-2.791 0.279-4.148l7.962-10.481h9.974c22.098 5.757 39.733 21.208 48.362 41.422l0.178 4.458c18.775-24.279 43.801-42.878 72.682-53.498 53.655-26.295 108.845-52.892 105.52-126.035-1.109-18.557-3.24-35.672-6.384-52.431 0.163 1.369 0.027-0.001 0.027-1.402 0-8.509 4.994-15.851 12.211-19.255 1.12-7.046 1.685-15.121 1.685-23.328s-0.565-16.282-1.659-24.188zM314.514 805.458c46.46 47.157 111.019 76.373 182.401 76.373 6.010 0 11.971-0.207 17.877-0.614 2.362 0.192 6.066 0.276 9.789 0.276 70.858 0 134.585-30.533 178.741-79.16 48.022-61.66 76.885-139.951 76.885-224.983 0-4.664-0.087-9.308-0.259-13.93-7.932 8.156-18.676 12.757-30.494 12.757-6.782 0-13.21-1.515-18.964-4.226 0.272 8.759 0.272 17.403 0.272 26.048v0c3.99 98.41-71.148 132.987-125.673 162.244-27.007 5.363-48.811 23.651-58.982 48.009 0.002 1.675 0.116 2.992 0.116 4.335 0 9.606-5.819 17.852-14.125 21.406-12.785 8.702-24.754-8.586-46.032-35.184l-3.99-4.655v3.325l-13.964 7.979-11.304-4.655c-99.053-28.47-170.301-118.266-170.301-224.703 0-2.12 0.028-4.234 0.084-6.34-6.219 4.062-13.723 6.282-21.744 6.282-10.807 0-20.672-4.028-28.178-10.665-0.13 4.272-0.23 9.238-0.23 14.229 0 85.591 29.403 164.314 78.658 226.62z" />
<glyph unicode="&#xe93f;" glyph-name="rc-icon-replace-orders" d="M175.543 446.171c-14.629 14.629-36.571 14.629-51.2 0l-102.4-109.714c-14.629-7.314-14.629-36.571 0-51.2s36.571-14.629 51.2 0l36.571 36.571c21.943-197.486 197.486-358.4 402.286-358.4 219.429 0 402.286 182.857 402.286 402.286h-73.143c0-182.857-146.286-329.143-329.143-329.143-168.229 0-307.2 131.657-329.143 292.571l43.886-43.886c14.629-14.629 36.571-14.629 51.2 0 14.629 7.314 14.629 21.943 14.629 29.257s0 14.629-7.314 21.943l-109.714 109.714zM365.714 182.857h292.571c36.571 0 73.143 36.571 73.143 73.143v365.714c0 36.571-36.571 73.143-73.143 73.143h-292.571c-36.571 0-73.143-36.571-73.143-73.143v-365.714c0-36.571 36.571-73.143 73.143-73.143zM365.714 621.714h292.571v-365.714h-292.571v365.714zM848.457 431.543c14.629-14.629 36.571-14.629 51.2 0l102.4 102.4c14.629 14.629 14.629 36.571 0 51.2s-36.571 14.629-51.2 0l-36.571-36.571c-21.943 204.8-197.486 365.714-402.286 365.714-219.429 0-402.286-182.857-402.286-402.286h73.143c0 182.857 146.286 329.143 329.143 329.143 168.229 0 307.2-131.657 329.143-292.571l-43.886 43.886c-14.629 14.629-36.571 14.629-51.2 0-14.629-7.314-14.629-21.943-14.629-29.257s0-21.943 7.314-29.257l109.714-102.4zM438.857 548.571h146.286v-73.143h-146.286v73.143zM438.857 402.286h146.286v-73.143h-146.286v73.143z" />
<glyph unicode="&#xe940;" glyph-name="Desktopapp" d="M0 663.379v-439.292c0-39.789 32.971-72.926 73.644-72.926h876.713c40.733 0 73.644 32.65 73.644 72.926v439.292c0 39.789-32.971 72.926-73.644 72.926h-876.713c-40.733 0-73.644-32.65-73.644-72.926zM73.143 627.248c0 19.834 16.75 35.914 36.597 35.914h804.521c20.212 0 36.597-16.668 36.597-35.914v-367.030c0-19.834-16.75-35.914-36.597-35.914h-804.521c-20.212 0-36.597 16.668-36.597 35.914v367.030zM863.871 100.135c15.793-12.214 12.697-22.116-8.119-22.116h-687.786c-20.277 0-23.241 8.657-5.52 20.042l78.69 50.557c3.322 1.666 6.709 2.543 10.096 2.543h539.329c2.645 0 7.845-1.512 7.845-1.512s2.463-1.052 3.684-1.733l61.781-47.782z" />
<glyph unicode="&#xe941;" glyph-name="delete-filled" d="M914.286 794.819h-190.171v87.771c0 36.571-29.257 73.143-73.143 73.143h-285.257c-36.571 0-73.143-29.257-73.143-73.143v-87.771h-182.857c-21.943 0-36.571-14.629-36.571-36.571s14.629-36.571 36.571-36.571h58.514l29.257-687.543c-7.314-58.514 43.886-102.4 95.086-102.4h431.543c51.2 0 95.086 43.886 95.086 95.086l36.571 694.857h58.514c21.943 0 36.571 14.629 36.571 36.571s-14.629 36.571-36.571 36.571zM358.4 882.59c0 7.314 0 7.314 7.314 7.314h292.571c7.314 0 7.314 0 7.314-7.314v-87.771h-307.2v87.771zM621.714 143.847v438.857c0 21.943 14.629 36.571 36.571 36.571s36.571-14.629 36.571-36.571v-438.857c0-21.943-14.629-36.571-36.571-36.571s-36.571 14.629-36.571 36.571zM329.143 143.847v438.857c0 21.943 14.629 36.571 36.571 36.571s36.571-14.629 36.571-36.571v-438.857c0-21.943-14.629-36.571-36.571-36.571s-36.571 14.629-36.571 36.571zM475.429 143.847v438.857c0 21.943 14.629 36.571 36.571 36.571s36.571-14.629 36.571-36.571v-438.857c0-21.943-14.629-36.571-36.571-36.571s-36.571 14.629-36.571 36.571z" />
<glyph unicode="&#xe942;" glyph-name="filter" d="M892.343 882.59l-380.343-519.314v-358.4l-65.829 43.886v321.829l-314.514 512h760.686zM892.343 955.733h-760.686c-29.257 0-51.2-14.629-65.829-36.571s-14.629-51.2 0-73.143l314.514-490.057v-299.886c0-21.943 14.629-43.886 29.257-58.514l65.829-43.886c7.314-14.629 21.943-21.943 36.571-21.943s21.943 0 36.571 7.314c21.943 14.629 36.571 36.571 36.571 65.829v336.457l365.714 497.371c14.629 21.943 21.943 51.2 7.314 73.143-7.314 29.257-36.571 43.886-65.829 43.886v0z" />
<glyph unicode="&#xe943;" glyph-name="icon_calendar" d="M950.355-68.267h-876.711c-40.733 0-73.643 32.667-73.643 72.963v585.322h1023.998v-585.322c0-40.319-32.971-72.963-73.643-72.963zM914.26 4.876c20.212 0 36.597 17.035 36.597 36.822v475.178h-877.714v-475.178c0-20.336 16.75-36.822 36.597-36.822h804.521zM219.423 772.876c12.21 0 21.948 8.149 21.948 18.204v146.45c0 9.865-9.828 18.204-21.948 18.204-12.2 0-21.938-8.151-21.938-18.204v-146.45c0-9.886 9.817-18.204 21.938-18.204zM804.573 772.876c12.203 0 21.941 8.149 21.941 18.204v146.45c0 9.865-9.828 18.204-21.941 18.204-12.226 0-21.944-8.151-21.944-18.204v-146.45c0-9.886 9.807-18.204 21.944-18.204zM731.411 114.59c-20.178 0-36.553 16.374-36.553 36.572 0 20.196 16.375 36.571 36.553 36.571 20.214 0 36.589-16.374 36.589-36.571s-16.374-36.572-36.589-36.572zM731.415 443.733c40.405 0 73.156-32.749 73.156-73.156 0-40.382-32.751-73.13-73.156-73.13-40.382 0-73.13 32.748-73.13 73.13 0 40.408 32.748 73.156 73.13 73.156zM511.995 407.162c20.201 0 36.576-16.381 36.576-36.581s-16.375-36.562-36.576-36.562c-20.191 0-36.567 16.361-36.567 36.562s16.376 36.581 36.567 36.581zM511.995 187.733c20.201 0 36.576-16.374 36.576-36.571s-16.375-36.572-36.576-36.572c-20.191 0-36.567 16.374-36.567 36.572 0 20.196 16.376 36.571 36.567 36.571zM292.571 407.162c20.199 0 36.571-16.381 36.571-36.581s-16.373-36.562-36.571-36.562c-20.198 0-36.571 16.361-36.571 36.562s16.373 36.581 36.571 36.581zM292.571 187.733c20.199 0 36.571-16.374 36.571-36.571s-16.373-36.572-36.571-36.572-36.571 16.374-36.571 36.572c0 20.196 16.373 36.571 36.571 36.571zM877.714 882.59c0 0 0-73.143 0-73.143 0-73.42-73.143-73.42-73.143-73.42-23.105 0-73.143 5.111-73.143 73.42 0-43.655 0 73.143 0 73.143h-438.857c0 0 0-92.303 0-73.143 0-68.612-36.254-73.517-73.143-73.42s-72.674 5.111-73.143 73.42c-0.002-43.561 0 73.143 0 73.143h-73.142c-40.395 0-73.142-32.377-73.142-73.067v-146.362h1023.999v146.362c0 40.354-32.466 73.067-73.143 73.067h-73.143z" />
<glyph unicode="&#xe944;" glyph-name="icon_contract" d="M907.243 706.22l14.119 18.737c21.588 28.648 18.739 68.311-5.172 93.617l18.703 24.819c5.149 6.832 3.579 15.651-2.884 20.522l-16.316 12.295c-6.832 5.149-15.651 3.579-20.522-2.884l-19.527-25.913c-29.58 12.018-65.42 3.518-85.714-23.414l-338.159-448.752c-6.595-8.752-11.181-18.358-13.841-28.282l-0.471 0.395-59.102-167.49c-6.485-18.378 2.069-26.166 19.477-16.343l154.683 87.288-0.298 0.25c11.852 5.518 22.559 13.958 30.985 25.14l293.922 390.048 47.977-36.153-111.562-148.047c-5.247-6.963-3.695-15.877 2.811-20.779l16.424-12.376c6.877-5.183 15.796-3.548 20.749 3.025l132.651 176.034c5.247 6.963 3.695 15.877-2.811 20.779l-10.252 7.725 0.059 0.079-65.929 49.681zM731.429 367.47v-231.226c0-75.254-46.916-136.244-104.803-136.244h-521.874c-57.835 0-104.751 60.923-104.751 136.244v678.369c0 75.254 46.864 136.244 104.751 136.244h521.874c51.136 0 93.71-47.54 102.946-110.55l-69.329-88.738v51.749c0 40.090-32.65 72.471-72.926 72.471h-439.292c-39.789 0-72.926-32.446-72.926-72.471v-655.78c0-40.090 32.65-72.471 72.926-72.471h439.292c39.789 0 72.926 32.446 72.926 72.471v128.816l71.187 91.115zM146.286 694.857c0 20.198 16.668 36.571 35.914 36.571h367.030c19.834 0 35.914-16.964 35.914-36.571 0-20.198-16.668-36.571-35.914-36.571h-367.030c-19.834 0-35.914 16.964-35.914 36.571zM146.286 548.571c0 20.198 15.781 36.571 36.234 36.571h146.96c20.012 0 36.234-16.964 36.234-36.571 0-20.198-15.781-36.571-36.234-36.571h-146.96c-20.012 0-36.234 16.964-36.234 36.571z" />
<glyph unicode="&#xe945;" glyph-name="icon_cost_center" d="M877.714 73.143v804.391c0 40.496-33.329 73.343-72.806 73.366l-585.816 0.344c-40.21 0.024-72.806-33.309-72.806-73.317v-804.784h-36.441c-20.126 0-36.441-15.655-36.441-36.914v-72.458c0-20.387 16.209-36.914 36.27-36.914 0 0 477.167 0 715.592 0h88.972c20.225 0 36.62 15.655 36.62 36.914v72.458c0 20.387-16.964 36.914-36.571 36.914h-36.571zM767.968 877.714c20.215 0 36.603-16.805 36.603-36.661v-767.91h-219.429v109.536c0 40.494-32.466 73.321-73.143 73.321-40.396 0-73.143-32.691-73.143-73.321v-109.536h-219.429v767.91c0 20.248 16.881 36.661 36.603 36.661h511.936zM500.511 727.322v24.791c0 6.586 2.92 13.048 7.891 17.397 6.835 6.027 16.838 7.518 25.102 3.728 8.139-3.79 13.545-12.178 13.545-21.125v-27.090c3.977-0.746 7.953-1.678 11.93-2.734 21.809-6.027 42.064-17.708 56.852-34.981 7.394-8.637 13.421-18.454 17.584-29.016 1.056-2.734 2.050-5.592 2.858-8.388 0.808-2.61 1.553-5.219 1.864-7.891 0.435-4.536-0.435-9.071-2.547-13.11-4.287-8.264-13.421-13.234-22.679-12.427-9.134 0.87-17.149 7.207-20.007 15.906-0.87 2.672-1.491 5.406-2.485 8.077-0.994 2.61-2.175 5.157-3.542 7.58-2.796 4.846-6.275 9.258-10.252 13.11-8.202 7.891-18.64 13.048-29.575 16.093v-92.019c21.312-5.53 43.369-12.613 60.953-26.345 8.574-6.648 15.844-14.912 20.628-24.729 5.033-10.314 7.083-21.871 7.145-33.303 0.124-11.619-2.113-23.114-6.959-33.676-4.536-9.941-11.060-18.826-19.075-26.22-17.149-15.72-39.89-24.543-62.693-27.774v-25.723c0-6.586-2.92-13.048-7.891-17.397-6.773-6.027-16.838-7.518-25.102-3.728-8.139 3.79-13.545 12.116-13.545 21.125v25.599c-3.045 0.373-6.027 0.808-9.071 1.367-22.43 4.039-44.301 13.297-60.704 29.451-7.767 7.642-14.104 16.776-18.578 26.717-1.305 2.796-2.361 5.654-3.293 8.512-0.932 2.734-1.802 5.468-2.237 8.326-0.621 4.474 0.062 9.134 1.988 13.234 3.914 8.45 12.737 13.794 22.057 13.421 9.134-0.435 17.397-6.4 20.69-14.912 0.994-2.547 1.491-5.219 2.485-7.767s2.299-5.033 3.79-7.332c2.92-4.474 6.648-8.326 10.998-11.495 9.32-6.897 20.628-10.501 31.874-12.489v88.043c-13.421 3.231-26.842 6.71-39.703 11.805-19.448 7.642-37.839 19.448-48.464 37.963-8.574 15.098-11.37 32.869-9.506 49.769 2.423 22.43 14.291 42.748 32.061 56.479 18.764 14.539 42.251 21.312 65.613 23.176zM450.103 625.63c0.994-4.722 3.045-9.134 6.338-12.737 3.479-3.852 7.953-6.773 12.613-9.134 10.003-5.281 21.001-8.45 31.937-11.308v84.563c-17.708-1.988-38.026-8.45-47.346-24.978-4.474-7.891-5.343-17.584-3.542-26.407zM586.732 483.523c3.045 4.474 4.909 9.506 5.468 14.85 0.497 5.406 0.249 11.37-1.802 16.465-1.988 4.784-6.027 8.388-10.252 11.246-4.722 3.231-9.941 5.716-15.223 7.829-4.411 1.802-9.444 3.542-14.788 5.157v-76.548c13.607 2.92 28.457 9.134 36.597 21.001z" />
<glyph unicode="&#xe946;" glyph-name="more-information" d="M512 882.59c241.371 0 438.857-197.486 438.857-438.857s-197.486-438.857-438.857-438.857-438.857 197.486-438.857 438.857 197.486 438.857 438.857 438.857zM512 955.733c-285.257 0-512-226.743-512-512s226.743-512 512-512 512 226.743 512 512-226.743 512-512 512v0zM519.314 180.419v0c-21.943 0-43.886 7.314-58.514 21.943-7.314 14.629-21.943 21.943-29.257 43.886-14.629 36.571 0 73.143 14.629 109.714l51.2 109.714c0 0-7.314 21.943-36.571 0-14.629-7.314-29.257-7.314-43.886 0 0 14.629 0 21.943 14.629 36.571s43.886 14.629 73.143 14.629c29.257 0 43.886-14.629 51.2-36.571s0-36.571-7.314-43.886l-51.2-102.4c-7.314-21.943-21.943-51.2-21.943-65.829 7.314-14.629 29.257-65.829 58.514 7.314 7.314 14.629 21.943 14.629 36.571 7.314 21.943-14.629-7.314-73.143-21.943-80.457-7.314-14.629-14.629-21.943-29.257-21.943zM607.086 648.533c0-29.257-29.257-58.514-58.514-58.514s-58.514 29.257-58.514 58.514 29.257 58.514 58.514 58.514 58.514-29.257 58.514-58.514z" />
<glyph unicode="&#xe947;" glyph-name="icon_international_calling" d="M621.675-19.142c39.802 41.281 73.401 104.201 97.362 181.361 44.959-13.643 88-31.522 128.763-53.281-60.924-62.001-138.845-107.199-226.125-128.080v0zM176.202 108.977c40.419 21.56 83.080 39.319 127.601 52.88 23.86-76.72 57.319-139.4 96.9-180.639-86.618 21.078-163.941 66.12-224.501 127.759v0zM400.705 896.497c-39.541-41.201-73-103.8-96.861-180.44-44.482 13.561-87.122 31.32-127.5 52.841 60.517 61.559 137.8 106.56 224.361 127.599v0zM847.679 768.898c-40.758-21.679-83.762-39.599-128.683-53.201-23.959 77.041-57.562 139.92-97.321 181.201 87.2-20.922 165.080-66.040 226.004-128v0zM757.996 459.337c-1.483 78.079-11.402 151.599-27.919 216.88 51.081 15.44 99.883 36.12 145.803 61.399 62.879-76.399 102.12-172.92 106.638-278.279h-224.521zM757.996 418.377h224.521c-4.518-105.281-43.719-201.722-106.519-278.121-45.965 25.281-94.763 46-145.883 61.44 16.518 65.242 26.398 138.721 27.88 216.681v0zM532.474 233.457v184.92h184.322c-1.517-76.158-11.001-145.638-26.281-205.96-50.92 12.401-103.72 19.6-158.041 21.039v0zM532.474-28.942v221.48c50.441-1.441 99.521-8.12 146.843-19.52-35.643-112.961-91.603-186.681-146.843-201.96v0zM491.524 192.538v-221.961c-55.619 14.521-112.12 88.481-148.040 202.162 47.678 11.599 97.179 18.358 148.040 19.799v0zM305.944 418.377h185.58v-184.92c-54.718-1.439-107.96-8.762-159.22-21.319-15.341 60.358-24.862 129.958-26.361 206.239v0zM264.723 418.377c1.499-78.12 11.42-151.76 27.963-217.080-50.663-15.399-99.063-35.959-144.664-61.078-62.799 76.399-102.020 172.877-106.539 278.158h223.24zM264.723 459.337h-223.242c4.52 105.279 43.74 201.759 106.539 278.16 45.601-25.121 93.982-45.681 144.664-61.041-16.54-65.318-26.462-138.958-27.961-217.119v0zM491.524 644.498v-185.159h-185.58c1.499 76.36 11.040 146 26.379 206.4 51.26-12.52 104.481-19.801 159.201-21.241v0zM491.524 907.138v-221.721c-50.838 1.439-100.321 8.2-147.98 19.799 35.939 113.561 92.401 187.441 147.98 201.921v0zM532.474 685.417v221.24c55.24-15.28 111.162-88.88 146.804-201.761-47.283-11.398-96.363-18.039-146.804-19.479v0zM532.474 644.457c54.28 1.48 107.121 8.64 157.959 21.039 15.362-60.36 24.843-129.921 26.361-206.159h-184.322v185.12h0.002zM512.004 950.857h-0.639c-0.202 0-0.401-0.041-0.602-0.041-282.221-0.639-510.762-229.598-510.762-511.959 0-282.281 228.541-511.28 510.762-511.959 0.202 0 0.401-0.041 0.602-0.041h0.639c282.714 0 511.996 229.281 511.996 512 0 282.76-229.281 512-511.996 512v0z" />
<glyph unicode="&#xe948;" glyph-name="icon_meetings" d="M996.849 670.582c-4.537 0-9.001-1.537-13.539-4.537l-230.159-153.464v-139.998l230.159-151.927c3-3 9.001-4.537 13.539-4.537 15.076 0 27.078 12.075 27.151 28.614v398.772c-0.073 15.076-12.075 27.078-27.151 27.078zM659.082 758.247h-600.463c-32.42 0-58.619-26.199-58.619-58.619v-512.571c0-32.347 26.199-58.619 58.619-58.619h600.463c32.347 0 58.619 26.273 58.619 58.619v512.571c0 32.42-26.273 58.619-58.619 58.619z" />
<glyph unicode="&#xe949;" glyph-name="icon_payment" d="M1024 731.802c0 40.189-32.909 72.769-73.641 72.769h-876.683c-40.671 0-73.641-33.312-73.641-72.769v-585.517c0-40.189 32.909-72.769 73.641-72.769h876.683c40.671 0 73.641 33.312 73.641 72.769v585.517zM951.119 438.857v-255.968c0-19.722-16.39-36.603-36.608-36.603h-804.776c-19.853 0-36.608 16.388-36.608 36.603v511.936c0 19.722 16.39 36.603 36.608 36.603h804.776c19.853 0 36.608-16.388 36.608-36.603v-109.682h-877.949v-146.286h877.949zM146.25 256c0 20.198 15.734 36.571 35.884 36.571h220.875c19.818 0 35.884-16.964 35.884-36.571 0-20.198-15.734-36.571-35.884-36.571h-220.875c-19.818 0-35.884 16.964-35.884 36.571z" />
<glyph unicode="&#xe94a;" glyph-name="stop" d="M512 955.733c-285.257 0-512-226.743-512-512s226.743-512 512-512c285.257 0 512 226.743 512 512s-226.743 512-512 512zM512 882.59c109.714 0 204.8-36.571 285.257-102.4l-614.4-614.4c-73.143 73.143-109.714 168.229-109.714 277.943 0 241.371 197.486 438.857 438.857 438.857zM512 4.876c-109.714 0-204.8 36.571-285.257 102.4l614.4 614.4c73.143-73.143 109.714-168.229 109.714-277.943 0-241.371-197.486-438.857-438.857-438.857z" />
<glyph unicode="&#xe94b;" glyph-name="radio-button-selected" d="M731.429 443.733c0-121.187-98.242-219.429-219.429-219.429s-219.429 98.242-219.429 219.429c0 121.187 98.242 219.429 219.429 219.429s219.429-98.242 219.429-219.429zM512 882.59c241.371 0 438.857-197.486 438.857-438.857s-197.486-438.857-438.857-438.857-438.857 197.486-438.857 438.857 197.486 438.857 438.857 438.857zM512 955.733c-285.257 0-512-226.743-512-512s226.743-512 512-512 512 226.743 512 512-226.743 512-512 512v0z" />
<glyph unicode="&#xe94c;" glyph-name="icon_my_webinar" d="M292.571 736.304v-73.143h-146.105c-39.988 0-73.324-32.445-73.324-72.468v-293.92c0-39.483 32.828-72.468 73.324-72.468h731.067c39.988 0 73.324 32.445 73.324 72.468v293.92c0 39.483-32.828 72.468-73.324 72.468h-146.105v73.143h218.928c40.672 0 73.644-33.136 73.644-72.926v-439.292c0-40.276-32.911-72.926-73.644-72.926h-876.713c-40.672 0-73.644 33.136-73.644 72.926v439.292c0 40.276 32.911 72.926 73.644 72.926h218.928zM365.714 443.733c-40.396 0-73.143 32.747-73.143 73.143s32.747 73.143 73.143 73.143c40.396 0 73.143-32.747 73.143-73.143s-32.747-73.143-73.143-73.143zM512 297.447h-292.571c0 80.791 65.494 146.286 146.286 146.286s146.286-65.494 146.286-146.286zM658.286 443.733c-40.396 0-73.143 32.747-73.143 73.143s32.747 73.143 73.143 73.143c40.396 0 73.143-32.747 73.143-73.143s-32.747-73.143-73.143-73.143zM804.571 297.447h-292.571c0 80.791 65.494 146.286 146.286 146.286s146.286-65.494 146.286-146.286zM992.057 96.384l-89.633 51.533c-1.643 0.68-4.956 1.733-4.956 1.733s-6.996 1.512-10.553 1.512h-725.514c-4.556 0-9.113-0.877-13.581-2.543l-115.013-54.931c-18.092-8.641-16.489-15.668 3.639-15.668h951.111c20.36 0 22.143 8.222 4.502 18.365zM365.714 699.733c0-19.607 16.062-36.571 35.875-36.571h220.821c20.145 0 35.875 16.374 35.875 36.571 0 19.607-16.062 36.571-35.875 36.571h-220.821c-20.145 0-35.875-16.374-35.875-36.571zM475.429 699.733c0 20.198 16.964 36.571 36.571 36.571 20.198 0 36.571-16.964 36.571-36.571 0-20.198-16.964-36.571-36.571-36.571-20.198 0-36.571 16.964-36.571 36.571z" />
<glyph unicode="&#xe94d;" glyph-name="icon_ringcentral_rooms" d="M292.571 736.304h-218.928c-40.733 0-73.644-32.65-73.644-72.926v-439.292c0-39.789 32.971-72.926 73.644-72.926h876.713c40.733 0 73.644 32.65 73.644 72.926v439.292c0 39.789-32.971 72.926-73.644 72.926h-218.928v-73.143h182.832c20.212 0 36.597-16.668 36.597-35.914v-367.030c0-19.834-16.75-35.914-36.597-35.914h-804.521c-20.212 0-36.597 16.668-36.597 35.914v367.030c0 19.834 16.75 35.914 36.597 35.914h182.832v73.143zM146.286 554.144c0 19.813 15.875 35.875 36.482 35.875h256.18c20.148 0 36.482-15.73 36.482-35.875v-220.821c0-19.813-15.875-35.875-36.482-35.875h-256.18c-20.148 0-36.482 15.73-36.482 35.875v220.821zM548.571 554.144c0 19.813 15.875 35.875 36.482 35.875h256.18c20.148 0 36.482-15.73 36.482-35.875v-220.821c0-19.813-15.875-35.875-36.482-35.875h-256.18c-20.148 0-36.482 15.73-36.482 35.875v220.821zM863.871 100.135c15.793-12.214 12.697-22.116-8.119-22.116h-687.786c-20.277 0-23.241 8.657-5.52 20.042l78.69 50.557c3.322 1.666 6.709 2.543 10.096 2.543h539.329c2.645 0 7.845-1.512 7.845-1.512s2.463-1.052 3.684-1.733l61.781-47.782zM365.714 699.733c0 20.198 15.73 36.571 35.875 36.571h220.821c19.813 0 35.875-16.964 35.875-36.571 0-20.198-15.73-36.571-35.875-36.571h-220.821c-19.813 0-35.875 16.964-35.875 36.571zM512 663.162c20.198 0 36.571 16.374 36.571 36.571s-16.374 36.571-36.571 36.571c-20.198 0-36.571-16.374-36.571-36.571s16.374-36.571 36.571-36.571z" />
<glyph unicode="&#xe94e;" glyph-name="forwardnumber" d="M1002.057 509.562c-109.714 73.143-409.6 248.686-438.857 270.629-7.314 7.314-21.943 14.629-36.571 7.314s-14.629-21.943-14.629-36.571c0-21.943 0-43.886 0-65.829s0-80.457 0-102.4c0-14.629 0-21.943-14.629-21.943-51.2 0-73.143 14.629-124.343 0-117.029-21.943-212.114-73.143-277.943-160.914-51.2-65.829-80.457-146.286-95.086-226.743 0-29.257 0-58.514 0-80.457s14.629-21.943 29.257-14.629c14.629 7.314 29.257 58.514 43.886 73.143 21.943 21.943 65.829 102.4 168.229 182.857 65.829 51.2 182.857 43.886 241.371 43.886 21.943 0 36.571-14.629 36.571-36.571s-7.314-117.029-7.314-146.286c0-14.629 0-29.257 0-43.886 0-21.943 21.943-29.257 36.571-21.943 7.314 0 14.629 7.314 21.943 14.629 95.086 65.829 219.429 153.6 314.514 219.429 36.571 29.257 80.457 58.514 117.029 87.771 21.943 14.629 21.943 29.257 14.629 43.886 0 7.314-7.314 7.314-14.629 14.629z" />
<glyph unicode="&#xe94f;" glyph-name="transfernumber" d="M789.943 531.504h-197.486l-14.629-175.543h124.343c29.257 0 51.2-21.943 43.886-51.2 0-29.257-29.257-51.2-58.514-51.2h-117.029l-14.629-124.343c0-29.257-29.257-51.2-58.514-51.2s-51.2 21.943-43.886 51.2l14.629 124.343h-175.543l-14.629-124.343c0-29.257-29.257-51.2-58.514-51.2s-51.2 21.943-43.886 51.2l14.629 124.343h-124.343c-29.257 0-51.2 21.943-43.886 51.2 0 29.257 29.257 51.2 58.514 51.2h124.343l14.629 175.543h-131.657c-29.257 0-51.2 21.943-43.886 51.2 0 29.257 29.257 51.2 58.514 51.2h117.029l14.629 124.343c0 29.257 29.257 51.2 58.514 51.2s51.2-21.943 43.886-51.2l-7.314-124.343h175.543l7.314 124.343c0 29.257 29.257 51.2 58.514 51.2s51.2-21.943 43.886-51.2l-7.314-124.343h182.857c0 21.943 0 36.571 0 36.571 0 7.314 0 21.943 0 29.257s0 21.943 0 29.257c0 7.314 0 14.629 7.314 14.629s14.629 0 14.629-7.314c14.629-7.314 29.257-21.943 36.571-29.257 51.2-36.571 95.086-73.143 146.286-102.4l7.314-7.314c7.314-7.314 0-14.629-7.314-21.943-14.629-14.629-36.571-29.257-51.2-36.571-43.886-29.257-87.771-58.514-131.657-95.086l-7.314-7.314c-7.314-7.314-14.629 0-14.629 7.314s0 14.629 0 21.943 0 21.943 0 36.571 0 14.629 0 29.257zM475.429 355.962l14.629 175.543h-175.543l-14.629-175.543h175.543z" />
<glyph unicode="&#xe950;" glyph-name="forget-this-computer" d="M959.268 779.165c3.522 30.652-5.789 61.409-25.207 83.264s-46.745 32.335-73.979 28.37h-696.068c-27.289 4.246-54.769-6.142-74.249-28.066s-28.709-52.854-24.937-83.568v-559.5c0-53.159 33.652-91.035 99.185-111.634 70.847 20.599 256.229 21.264 249.734 0-50.162-12.214-89.515-55.989-100.956-112.299h397.922c-11.29 55.683-49.78 99.261-99.185 112.299 7.085 23.257 177.116 20.599 248.553 0 64.943 21.264 99.185 59.14 99.185 111.634v559.5zM512 123.733c-35.346 0-64 28.654-64 64s28.654 64 64 64c35.346 0 64-28.654 64-64s-28.654-64-64-64v0zM894.728 317.181h-766.728v510.552h768v-512l-1.272 1.448zM367.324 379.733l144.676 144.676 144-144.676 48 47.324-144.676 144.676 144.676 144-48 48-144-144.676-144.676 144.676-47.324-48 144.676-144-144.676-144.676z" />
<glyph unicode="&#xe951;" glyph-name="setup-and-assign" d="M313.888 436.951c-18.392 0-33.319 14.927-33.319 33.319 0 117.684 95.76 213.377 213.377 213.377 18.459 0 33.319-14.86 33.319-33.319 0-18.392-14.86-33.319-33.319-33.319-80.899 0-146.738-65.839-146.738-146.738 0-18.392-14.927-33.319-33.319-33.319zM134.21 131.479l-14.927 17.393c-16.726 19.459-32.386 41.183-46.714 64.506l-11.928 19.525 72.703 94.494c-6.397 15.86-11.595 31.32-15.66 46.647l-113.886 33.653-1.733 22.724c-1.066 13.261-2.066 26.389-2.066 39.85s1 26.589 2.066 39.85l1.733 22.857 113.886 33.519c4.065 15.394 9.263 30.787 15.66 46.647l-72.703 94.494 11.928 19.458c14.327 23.39 29.987 45.114 46.714 64.573l14.927 17.393 113.019-40.183c12.062 9.929 25.123 19.259 38.984 27.988l-3.399 120.549 21.124 8.796c23.19 9.663 47.98 17.593 75.901 24.256l22.324 5.264 67.505-98.559c16.060 1.999 32.586 1.999 48.58 0l67.505 98.559 22.324-5.264c28.055-6.731 52.911-14.661 75.901-24.256l20.991-8.863-2.932-110.62c-0.533-18.459-15.66-33.786-34.252-32.453-18.459 0.533-32.92 15.86-32.386 34.252l1.733 64.306c-7.264 2.466-14.727 4.865-22.524 7.064l-64.24-93.761-32.253 3.798c-15.793 2.199-32.253 2.132-48.246 0.067l-32.32-3.865-64.24 93.761c-7.797-2.199-15.327-4.598-22.524-7.064l3.132-113.686-17.459-9.863c-22.457-12.728-42.582-27.122-59.575-42.782l-14.794-13.594-106.422 37.784c-4.731-6.197-9.396-12.595-13.927-19.259l68.638-89.096-8.33-18.259c-11.329-24.723-19.125-47.847-23.657-70.57l-3.932-19.792-107.555-31.587c-0.133-3.998-0.267-7.863-0.267-11.862s0.133-7.863 0.267-11.795l107.555-31.653 3.932-19.792c4.531-22.724 12.328-45.847 23.657-70.57l8.33-18.259-68.638-89.096c4.531-6.664 9.196-13.061 13.927-19.259l4.265 1.466c17.126 6.264 36.385-2.932 42.515-20.258s-2.932-36.385-20.258-42.582l-47.98-16.993zM817.67 307.125l102.024 102.024c78.767 78.767 79.433 206.247 1.533 284.081-38.65 38.65-89.629 57.976-140.741 57.976-51.778 0-103.756-19.858-143.473-59.442l-101.957-102.024c-38.051-37.917-59.109-88.43-59.375-142.14-0.4-53.844 20.192-104.29 57.909-141.94 16.793-16.926 46.447-16.926 63.24 0 8.463 8.396 13.128 19.592 13.128 31.587s-4.665 23.19-13.128 31.653c-20.858 20.791-32.186 48.713-31.853 78.567 0.333 29.787 12.195 57.909 33.319 79.1l101.957 101.957c43.915 43.848 114.552 44.448 157.667 1.533 20.858-20.858 32.186-48.78 31.853-78.634-0.267-29.721-12.128-57.842-33.253-79.1l-48.913-48.78c9.263-24.923 13.994-51.179 13.794-78.234-0.067-12.328-1.466-25.056-4.332-38.85 0.2 0.2 0.4 0.4 0.6 0.666zM316.314 371.032c-78.7-78.7-79.367-206.18-1.466-284.214 37.318-37.318 87.297-57.976 140.674-57.976 54.111 0 105.023 21.124 143.473 59.508l101.891 102.024c38.051 37.917 59.109 88.43 59.442 142.14 0.4 53.844-20.192 104.29-57.909 142.007-16.66 16.86-46.247 16.926-63.173 0-8.53-8.463-13.194-19.658-13.194-31.653s4.665-23.19 13.194-31.587c20.591-20.658 31.853-48.446 31.653-78.234-0.133-29.921-11.862-58.042-33.186-79.433l-101.891-101.957c-43.915-43.782-114.685-44.515-157.667-1.599-43.115 43.115-42.449 113.886 1.333 157.734l44.315 44.248c-9.996 25.523-14.927 52.445-14.727 80.033 0.067 11.262 1.266 22.99 3.665 35.385l-96.426-96.426z" />
<glyph unicode="&#xe952;" glyph-name="bandwidth-settings" d="M321.225 608.129c-13.44-13.44-13.44-35.231 0.006-48.671 13.434-13.44 35.231-13.44 48.671 0 36.195 36.195 84.322 56.128 135.505 56.128 51.189 0 99.316-19.933 135.511-56.128 6.717-6.723 15.528-10.084 24.339-10.084 8.805 0 17.616 3.361 24.339 10.084 13.44 13.44 13.44 35.231-0.006 48.671-49.193 49.199-114.608 76.291-184.182 76.291-69.58 0-134.983-27.092-184.182-76.291zM761.335 645.459c8.805 0 17.616 3.361 24.333 10.078 13.446 13.446 13.446 35.231 0.006 48.677-74.863 74.857-174.396 116.088-280.263 116.088-105.872 0-205.406-41.232-280.269-116.088-13.44-13.446-13.44-35.231-0.006-48.677 13.44-13.44 35.237-13.44 48.677 0 61.864 61.864 144.115 95.932 231.597 95.932s169.733-34.067 231.586-95.932c6.723-6.723 15.528-10.078 24.339-10.078zM177.871 751.48c180.609 180.603 474.466 180.603 655.075 0 6.717-6.717 15.528-10.078 24.333-10.078 8.811 0 17.621 3.361 24.339 10.078 13.44 13.44 13.44 35.231 0 48.671-207.437 207.442-544.981 207.442-752.412 0-13.446-13.44-13.446-35.231 0-48.671 13.428-13.44 35.231-13.44 48.666 0zM34.417 296.066h202.865v-38.748c0-19.004 15.413-34.417 34.417-34.417 19.010 0 34.417 15.413 34.417 34.417v38.748h661.809c19.010 0 34.417 15.407 34.417 34.417 0 19.004-15.407 34.417-34.417 34.417h-661.809v38.742c0 19.010-15.407 34.417-34.417 34.417-19.004 0-34.417-15.407-34.417-34.417v-38.742h-202.865c-19.004 0-34.417-15.413-34.417-34.417 0-19.010 15.413-34.417 34.417-34.417zM967.925 152.137h-202.871v49.876c0 19.010-15.413 34.417-34.417 34.417-19.010 0-34.417-15.407-34.417-34.417v-49.876h-661.804c-19.010 0-34.417-15.413-34.417-34.417s15.407-34.417 34.417-34.417h661.804v-49.876c0-19.010 15.407-34.417 34.417-34.417 19.004 0 34.417 15.407 34.417 34.417v49.876h202.871c19.004 0 34.417 15.413 34.417 34.417s-15.413 34.417-34.417 34.417z" />
<glyph unicode="&#xe953;" glyph-name="freezed-ext" d="M512 78.019v0c201.978 0 365.714 163.736 365.714 365.714s-163.736 365.714-365.714 365.714c-201.978 0-365.714-163.736-365.714-365.714s163.736-365.714 365.714-365.714v0zM512-68.267v0c-282.77 0-512 229.23-512 512s229.23 512 512 512c282.77 0 512-229.23 512-512s-229.23-512-512-512v0z" />
<glyph unicode="&#xe954;" glyph-name="setup-and-provision" d="M918.729 0h-447.743c-17.735 0-32.129 14.853-32.129 33.153v591.98c0 18.3 14.394 33.153 32.129 33.153h447.743c17.735 0 32.129-14.853 32.129-33.153v-591.98c0-18.3-14.394-33.153-32.129-33.153zM512 73.143h365.714v512h-365.714v-512zM704.831 146.286h-93.091c-14.682 0-26.597 16.384-26.597 36.571s11.916 36.571 26.597 36.571h93.091c14.682 0 26.597-16.384 26.597-36.571s-11.916-36.571-26.597-36.571zM779.494 292.571h-169.273c-13.843 0-25.078 16.384-25.078 36.571s11.235 36.571 25.078 36.571h169.273c13.843 0 25.078-16.384 25.078-36.571s-11.235-36.571-25.078-36.571zM779.494 438.857h-169.273c-13.843 0-25.078 16.384-25.078 36.571s11.235 36.571 25.078 36.571h169.273c13.843 0 25.078-16.384 25.078-36.571s-11.235-36.571-25.078-36.571zM339.448 24.926c-15.649 4.572-30.912 9.917-45.788 16.1l-20.286 8.565 3.156 116.434c-13.395 8.501-25.953 17.452-37.674 27.048l-109.157-38.833-14.425 16.808c-16.357 19.127-31.556 40.121-45.144 62.467l-11.527 18.869 70.259 91.254c-6.247 15.263-11.27 30.139-15.134 45.015l-110.123 32.393-1.739 22.089c-0.966 12.751-1.868 25.502-1.868 38.511s0.902 25.76 1.868 38.511l1.739 22.089 110.123 32.457c3.864 14.747 8.887 29.752 15.134 45.015l-70.259 91.254 11.527 18.869c13.588 22.282 28.786 43.341 45.144 62.467l14.425 16.744 109.092-38.768c11.656 9.467 24.15 18.483 37.738 27.048l-3.156 116.434 20.35 8.565c22.218 9.273 46.883 17.13 73.286 23.377l21.574 5.152 65.301-95.311c15.327 1.868 31.427 1.868 46.883 0l65.301 95.311 21.574-5.152c26.597-6.311 50.553-13.91 73.222-23.377l20.479-8.501-3.284-116.562c13.588-8.501 26.082-17.517 37.738-26.983l104.391 37.094 13.781-10.046c1.224-0.902 29.688-21.96 49.781-44.307 11.849-13.266 10.755-33.552-2.512-45.466-13.331-11.849-33.616-10.819-45.466 2.447-8.114 9.080-18.611 18.289-26.79 25.051l-107.611-38.318-14.297 13.202c-16.486 15.198-35.355 28.722-57.637 41.409l-16.744 9.531 2.962 109.736c-7.020 2.447-14.232 4.766-21.703 6.955l-62.145-90.738-30.847 3.671c-15.649 2.19-31.878 2.19-47.398 0l-30.718-3.671-62.145 90.738c-7.47-2.19-14.747-4.508-21.703-6.955l2.898-109.736-16.744-9.531c-22.282-12.687-41.151-26.21-57.637-41.409l-14.232-13.202-102.91 36.579c-4.572-5.989-9.080-12.171-13.395-18.611l66.267-86.037-8.050-17.71c-10.948-23.892-18.418-46.239-22.797-68.134l-3.864-19.127-103.876-30.654c-0.193-3.8-0.258-7.535-0.258-11.399 0-3.8 0.064-7.664 0.258-11.399l103.876-30.59 3.864-19.127c4.379-21.96 11.849-44.242 22.797-68.199l8.050-17.645-66.267-86.102c4.315-6.376 8.823-12.558 13.459-18.611l102.781 36.514 14.232-13.137c16.486-15.134 35.935-29.044 57.637-41.28l16.808-9.595-2.898-109.865c6.118-2.125 12.365-4.057 18.74-5.989 17.001-5.023 26.79-22.862 21.703-39.992-4.057-13.975-16.937-23.055-30.847-23.055-3.027 0-6.054 0.451-9.145 1.352zM350.917 329.849c-8.565 0-17.066 3.413-23.377 10.046-36.386 38.446-56.414 88.742-56.414 141.743 0 50.167 18.161 98.466 51.133 136.011 11.785 13.395 32.135 14.619 45.466 2.962 13.331-11.785 14.619-32.135 2.962-45.466-22.733-25.824-35.162-58.99-35.162-93.508 0-36.45 13.781-71.032 38.768-97.436 12.236-12.88 11.656-33.294-1.224-45.53-6.247-5.86-14.168-8.823-22.153-8.823z" />
<glyph unicode="&#xe955;" glyph-name="radio-button-unselected" d="M512 875.733c237.6 0 432-194.4 432-432s-194.4-432-432-432-432 194.4-432 432 194.4 432 432 432zM512 947.733c-280.8 0-504-223.2-504-504s223.2-504 504-504 504 223.2 504 504c0 280.8-223.2 504-504 504v0z" />
<glyph unicode="&#xe956;" glyph-name="dnd" d="M512 955.733c-285.257 0-512-226.743-512-512s226.743-512 512-512 512 226.743 512 512-226.743 512-512 512zM819.2 407.162h-607.086c-21.943 0-36.571 14.629-36.571 36.571s14.629 36.571 36.571 36.571h607.086c21.943 0 36.571-14.629 36.571-36.571s-21.943-36.571-36.571-36.571z" />
<glyph unicode="&#xe957;" glyph-name="lock-filled" d="M731.429 590.019v117.029c0 138.971-95.086 248.686-219.429 248.686s-219.429-109.714-219.429-248.686v-117.029c-80.457-7.314-146.286-80.457-146.286-160.914v-329.143c0-95.086 73.143-168.229 153.6-168.229h416.914c87.771 0 153.6 73.143 153.6 160.914v336.457c7.314 80.457-58.514 153.6-138.971 160.914zM512 114.59c-80.457 0-146.286 65.829-146.286 146.286s65.829 146.286 146.286 146.286 146.286-65.829 146.286-146.286-65.829-146.286-146.286-146.286zM365.714 590.019v117.029c0 95.086 65.829 175.543 146.286 175.543s146.286-80.457 146.286-175.543v-117.029h-292.571zM585.143 260.876c0-36.571-29.257-73.143-73.143-73.143s-73.143 29.257-73.143 73.143 29.257 73.143 73.143 73.143 73.143-36.571 73.143-73.143z" />
<glyph unicode="&#xe958;" glyph-name="chevron" d="M0 443.733c0-285.257 226.743-512 512-512s512 226.743 512 512c0 285.257-226.743 512-512 512s-512-226.743-512-512zM950.857 443.733c0-241.371-197.486-438.857-438.857-438.857s-438.857 197.486-438.857 438.857c0 241.371 197.486 438.857 438.857 438.857s438.857-197.486 438.857-438.857zM650.971 421.79c14.629 14.629 14.629 36.571 0 51.2l-219.429 212.114c-14.629 14.629-36.571 14.629-51.2 0s-14.629-36.571 0-51.2l190.171-182.857-197.486-197.486c-7.314-14.629-7.314-43.886 0-58.514s36.571-14.629 51.2 0l226.743 226.743z" />
<glyph unicode="&#xe959;" glyph-name="chevron-up-big" d="M974.429 159.162c-7.114 0-21.343 7.114-28.457 14.229l-433.971 462.429-433.971-462.429c-14.229-14.229-35.571-14.229-49.8 0s-14.229 35.571 0 49.8l462.429 490.886c7.114 7.114 14.229 14.229 21.343 14.229v0c7.114 0 21.343-7.114 28.457-14.229l462.429-490.886c14.229-14.229 14.229-35.571 0-49.8s-21.343-14.229-28.457-14.229z" />
<glyph unicode="&#xe95a;" glyph-name="chevron-right-big" d="M227.429 906.162c0-7.114 7.114-21.343 14.229-28.457l462.429-433.971-462.429-433.971c-14.229-14.229-14.229-35.571 0-49.8s35.571-14.229 49.8 0l490.886 462.429c7.114 7.114 14.229 14.229 14.229 21.343v0c0 7.114-7.114 21.343-14.229 28.457l-490.886 462.429c-14.229 14.229-35.571 14.229-49.8 0s-14.229-21.343-14.229-28.457z" />
<glyph unicode="&#xe95b;" glyph-name="chevron-left-big" d="M796.571-18.696c0 7.114-7.114 21.343-14.229 28.457l-462.429 433.971 462.429 433.971c14.229 14.229 14.229 35.571 0 49.8s-35.571 14.229-49.8 0l-490.886-462.429c-7.114-7.114-14.229-14.229-14.229-21.343v0c0-7.114 7.114-21.343 14.229-28.457l490.886-462.429c14.229-14.229 35.571-14.229 49.8 0s14.229 21.343 14.229 28.457z" />
<glyph unicode="&#xe95c;" glyph-name="chevron-down-big" d="M974.429 728.304c-7.114 0-21.343-7.114-28.457-14.229l-433.971-462.429-433.971 462.429c-14.229 14.229-35.571 14.229-49.8 0s-14.229-35.571 0-49.8l462.429-490.886c7.114-7.114 14.229-14.229 21.343-14.229v0c7.114 0 21.343 7.114 28.457 14.229l462.429 490.886c14.229 14.229 14.229 35.571 0 49.8s-21.343 14.229-28.457 14.229z" />
<glyph unicode="&#xe95d;" glyph-name="shield" d="M936.229 941.104c-7.314 7.314-14.629 14.629-29.257 14.629h-789.943c-14.629 0-21.943-7.314-29.257-14.629s-14.629-14.629-14.629-29.257v-512c0-36.571 7.314-73.143 21.943-117.029 14.629-36.571 36.571-73.143 58.514-102.4s51.2-58.514 80.457-87.771c29.257-14.629 58.514-43.886 87.771-58.514s51.2-36.571 80.457-51.2c29.257-14.629 51.2-29.257 58.514-36.571 14.629-7.314 21.943-7.314 29.257-14.629 7.314 0 14.629 0 21.943 0s14.629 0 14.629 7.314c7.314 0 14.629 7.314 29.257 14.629s29.257 14.629 58.514 36.571c29.257 14.629 58.514 36.571 80.457 51.2 29.257 14.629 58.514 43.886 87.771 65.829 29.257 29.257 58.514 58.514 80.457 87.771s43.886 65.829 58.514 102.4c14.629 36.571 21.943 73.143 21.943 117.029v512c7.314 0 0 7.314-7.314 14.629zM512 260.876c-138.971 0-256 117.029-256 256s117.029 256 256 256 256-117.029 256-256-117.029-256-256-256zM694.857 516.876c0-102.4-80.457-182.857-182.857-182.857s-182.857 80.457-182.857 182.857 80.457 182.857 182.857 182.857 182.857-80.457 182.857-182.857z" />
<glyph unicode="&#xe95e;" glyph-name="templates" d="M877.714 955.733h-731.429c-80.457 0-146.286-65.829-146.286-146.286v-731.429c0-80.457 65.829-146.286 146.286-146.286h731.429c80.457 0 146.286 65.829 146.286 146.286v731.429c0 80.457-65.829 146.286-146.286 146.286zM877.714 4.876h-731.429c-43.886 0-73.143 36.571-73.143 73.143v621.714c0 0 0 0 0 0h877.714v-621.714c0-36.571-36.571-73.143-73.143-73.143zM863.086 487.619c0-21.943-14.629-36.571-36.571-36.571h-292.571c-21.943 0-36.571 21.943-36.571 36.571s14.629 36.571 36.571 36.571h292.571c21.943 0 36.571-14.629 36.571-36.571zM863.086 238.933c0-21.943-14.629-36.571-36.571-36.571h-292.571c-21.943 0-36.571 21.943-36.571 36.571s14.629 36.571 36.571 36.571h292.571c21.943 0 36.571-14.629 36.571-36.571zM336.457 502.247c-7.314 36.571-21.943 51.2-58.514 51.2s-51.2-14.629-58.514-51.2l-65.829-277.943c0-7.314-7.314-21.943-7.314-29.257 0-14.629 14.629-29.257 29.257-29.257 21.943 0 29.257 7.314 36.571 29.257l14.629 65.829h87.771l7.314-58.514c7.314-36.571 14.629-43.886 43.886-43.886 14.629 0 36.571 7.314 36.571 29.257 0 7.314 0 14.629-7.314 29.257l-58.514 285.257zM241.371 319.39l29.257 153.6 29.257-153.6h-58.514z" />
<glyph unicode="&#xe95f;" glyph-name="users" d="M950.857 443.733v0c0 242.71-196.147 438.857-438.857 438.857-241.607 0-438.857-198.052-438.857-438.857 0-242.71 196.147-438.857 438.857-438.857s438.857 196.147 438.857 438.857v0zM1024 443.733c0-283.106-228.894-512-512-512s-512 228.894-512 512c0 280.094 228.894 512 512 512s512-228.894 512-512v0zM591.21 489.681c-5.912-15.764-14.499-30.268-25.33-41.821-33.489-35.721-79.349-33.765-113.262 2.409-11.246 11.996-23.766 42.317-23.766 42.317-18.239 22.697-26.259 46.028-23.37 73.757 0 0 6.638 18.811 6.638 11.796 0 20.22 0.428 28.884 2.566 37.693 2.851 18.245 11.014 36.452 22.281 51.455 7.795 11.086 15.96 15.86 31.404 21.774 5.958 2.281 11.602 4.262 11.602 4.262 30.047 6.41 54.423 4.357 80.038-9.304l2.428-1.503c12.643-8.991 18.349-13.971 24.335-23.548 11.812-18.9 17.347-38.085 17.347-61.553v-14.456c0 1.449 7.064-4.917 9.494-13.557 1.52-5.404 1.8-9.184 1.8-15.356l-0.227-3.407c-2.799-20.898-11.104-41.837-22.793-57.423l-1.183-3.535zM370.46 211.794c-54.11 15.411-77.995 33.452-77.888 51.092 2.872 30.142 12.571 54.138 32.858 83.003 14.147 16.871 27.132 27.883 45.030 36.421 18.389 8.772 37.649 17.539 64.876 17.539 20.854 0 45.82-25.993 77.91-26.37 32.975-0.004 46.755 26.37 77.49 26.37 44.053 0 60.17-12.254 74.086-22.997 18.117-14.57 44.424-36.464 58.781-70.821 6.031-17.26 7.826-27.716 7.826-45.388 0-15.396-9.118-27.153-53.387-41.135s-116.883-24.46-164.796-24.46c-50.756 0-88.675 1.335-142.786 16.746z" />
<glyph unicode="&#xe960;" glyph-name="upload" d="M482.743 171.733v643.657l-160.914-160.914c-14.629-7.314-43.886-7.314-58.514 0-14.629 14.629-14.629 36.571 0 51.2l226.743 226.743c14.629 14.629 36.571 14.629 51.2 0l212.114-219.429c14.629-14.629 14.629-36.571 0-51.2s-36.571-14.629-51.2 0l-146.286 153.6v-636.343c0-21.943-14.629-36.571-36.571-36.571s-36.571 7.314-36.571 29.257zM987.429-68.267h-950.857c-21.943 0-36.571 14.629-36.571 36.571s14.629 36.571 36.571 36.571h950.857c21.943 0 36.571-14.629 36.571-36.571s-14.629-36.571-36.571-36.571z" />
<glyph unicode="&#xe961;" glyph-name="add-big" d="M475.429 407.162h-438.857c-20.198 0-36.571 16.374-36.571 36.571s16.374 36.571 36.571 36.571h438.857v438.857c0 20.198 16.374 36.571 36.571 36.571s36.571-16.374 36.571-36.571v-438.857h438.857c20.198 0 36.571-16.374 36.571-36.571s-16.374-36.571-36.571-36.571h-438.857v-438.857c0-20.198-16.374-36.571-36.571-36.571s-36.571 16.374-36.571 36.571v438.857z" />
<glyph unicode="&#xe962;" glyph-name="add" d="M109.714 407.162c-20.198 0-36.571 16.374-36.571 36.571s16.374 36.571 36.571 36.571h365.714v365.714c0 20.198 16.374 36.571 36.571 36.571s36.571-16.374 36.571-36.571v-365.714h365.714c20.198 0 36.571-16.374 36.571-36.571s-16.374-36.571-36.571-36.571h-365.714v-365.714c0-20.198-16.374-36.571-36.571-36.571s-36.571 16.374-36.571 36.571v365.714h-365.714z" />
<glyph unicode="&#xe963;" glyph-name="back" d="M133.461 444.242l853.548-2.421c20.198 0 36.571 16.374 36.571 36.571s-16.374 36.571-36.571 36.571l-852.565 2.419 149.514 143.116c14.282 14.282 14.282 37.438 0 51.72s-37.438 14.282-51.72 0l-220.504-205.063c-14.905-14.905-14.157-39.291 1.632-53.255l220.504-208.423c15.13-13.381 38.242-11.962 51.623 3.168s11.962 38.242-3.168 51.623l-148.865 143.974z" />
<glyph unicode="&#xe964;" glyph-name="checkbox-mix" d="M0 809.019c0 81.028 65.614 146.714 146.714 146.714h730.572c81.028 0 146.714-65.614 146.714-146.714v-730.572c0-81.028-65.614-146.714-146.714-146.714h-730.572c-81.028 0-146.714 65.614-146.714 146.714v730.572zM182.857 407.162h658.286c20.198 0 36.571 16.374 36.571 36.571s-16.374 36.571-36.571 36.571h-658.286c-20.198 0-36.571-16.374-36.571-36.571s16.374-36.571 36.571-36.571z" />
<glyph unicode="&#xe965;" glyph-name="checkbox-mix-readonly" d="M182.857 407.162h658.286c20.198 0 36.571 16.374 36.571 36.571s-16.374 36.571-36.571 36.571h-658.286c-20.198 0-36.571-16.374-36.571-36.571s16.374-36.571 36.571-36.571v0z" />
<glyph unicode="&#xe966;" glyph-name="checkbox-selected" d="M0 809.019c0 81.028 65.614 146.714 146.714 146.714h730.572c81.028 0 146.714-65.614 146.714-146.714v-730.572c0-81.028-65.614-146.714-146.714-146.714h-730.572c-81.028 0-146.714 65.614-146.714 146.714v730.572zM424.155 199.774l404.436 426.943c16.411 16.376 16.776 43.301 0.815 60.138s-42.204 17.212-58.615 0.837l-375.4-395.248-141.68 137.541c-16.136 16.661-42.382 16.746-58.621 0.19s-16.322-43.483-0.186-60.144l170.947-169.747c16.014-16.534 42.016-16.762 58.303-0.511z" />
<glyph unicode="&#xe967;" glyph-name="chevron-right-small" d="M671.739 466.029c17.617-18.738 16.732-49.392-1.932-66.941l-277.17-265.587c-17.886-16.817-45.2-15.034-61.019 3.979s-14.138 48.070 3.74 64.894l236.839 230.188-239.751 248.99c-16.882 17.95-16.882 47.058 0 65.016s44.253 17.95 61.135 0l278.157-280.54z" />
<glyph unicode="&#xe968;" glyph-name="delete" d="M914.286 794.819h-190.171v87.771c0 36.571-29.257 73.143-73.143 73.143h-285.257c-36.571 0-73.143-29.257-73.143-73.143v-87.771h-182.857c-21.943 0-36.571-14.629-36.571-36.571s14.629-36.571 36.571-36.571h58.514l29.257-687.543c-7.314-58.514 43.886-102.4 95.086-102.4h431.543c51.2 0 95.086 43.886 95.086 95.086l36.571 694.857h58.514c21.943 0 36.571 14.629 36.571 36.571s-14.629 36.571-36.571 36.571zM746.057 34.133c0-14.629-7.314-21.943-21.943-21.943h-431.543c-14.629 0-21.943 7.314-21.943 21.943l-29.257 680.229h541.257l-36.571-680.229zM358.4 882.59c0 7.314 0 7.314 7.314 7.314h292.571c7.314 0 7.314 0 7.314-7.314v-87.771h-307.2v87.771zM621.714 143.847v438.857c0 21.943 14.629 36.571 36.571 36.571s36.571-14.629 36.571-36.571v-438.857c0-21.943-14.629-36.571-36.571-36.571s-36.571 14.629-36.571 36.571zM329.143 143.847v438.857c0 21.943 14.629 36.571 36.571 36.571s36.571-14.629 36.571-36.571v-438.857c0-21.943-14.629-36.571-36.571-36.571s-36.571 14.629-36.571 36.571zM475.429 143.847v438.857c0 21.943 14.629 36.571 36.571 36.571s36.571-14.629 36.571-36.571v-438.857c0-21.943-14.629-36.571-36.571-36.571s-36.571 14.629-36.571 36.571z" />
<glyph unicode="&#xe969;" glyph-name="download" d="M482.743 919.162v-643.657l-160.914 160.914c-14.629 7.314-43.886 7.314-58.514 0-14.629-14.629-14.629-36.571 0-51.2l226.743-226.743c14.629-14.629 36.571-14.629 51.2 0l212.114 219.429c14.629 14.629 14.629 36.571 0 51.2s-36.571 14.629-51.2 0l-146.286-153.6v643.657c0 21.943-14.629 36.571-36.571 36.571s-36.571-14.629-36.571-36.571zM987.429-68.267h-950.857c-21.943 0-36.571 14.629-36.571 36.571s14.629 36.571 36.571 36.571h950.857c21.943 0 36.571-14.629 36.571-36.571s-14.629-36.571-36.571-36.571z" />
<glyph unicode="&#xe96a;" glyph-name="edit" d="M1016 789.333c-7.2 36-21.6 57.6-43.2 86.4l-36 28.8c-28.8 28.8-57.6 43.2-93.6 43.2s-72-14.4-100.8-50.4l-7.2-7.2 223.2-230.4 21.6 21.6c21.6 28.8 43.2 72 36 108zM677.6 839.733l-540-525.6 230.4-230.4 532.8 525.6zM8-2.667v0c0-14.4 0-36 14.4-43.2s21.6-14.4 36-14.4c7.2 0 7.2 0 14.4 0l244.8 86.4-223.2 230.4c0 0-79.2-208.8-86.4-259.2z" />
<glyph unicode="&#xe96b;" glyph-name="lock" d="M440.824 260.876c0 39.103 31.699 70.802 70.802 70.802s70.802-31.699 70.802-70.802c0-39.103-31.699-70.802-70.802-70.802s-70.802 31.699-70.802 70.802v0zM367.682 260.876c0-79.499 64.446-143.945 143.945-143.945s143.945 64.446 143.945 143.945c0 79.499-64.446 143.945-143.945 143.945s-143.945-64.446-143.945-143.945v0zM219.055 425.604v0-329.455c0-51.535 38.027-91.272 83.767-91.272h417.609c45.548 0 83.767 40.068 83.767 91.272v329.455c0 51.535-38.027 91.272-83.767 91.272h-417.609c-45.548 0-83.767-40.068-83.767-91.272v0zM302.822 590.019h417.609c86.659 0 156.91-72.963 156.91-164.415v-329.455c0-90.804-70.132-164.415-156.91-164.415h-417.609c-86.659 0-156.91 72.963-156.91 164.415v329.455c0 90.804 70.132 164.415 156.91 164.415zM731.665 667.671v40.467c0 135.196-97.173 247.595-219.429 247.595-122.322 0-219.429-112.214-219.429-248.041v-190.816h438.857v150.795zM659.237 589.251h-292.768l-0.518 118.441c0 97.592 66.898 174.898 146.286 174.898 79.303 0 146.286-77.478 146.286-174.452l0.714-118.887z" />
<glyph unicode="&#xe96c;" glyph-name="mail" d="M954.058 101.273v438.857c-12.191-13.714-25.333-26.286-39.429-37.714-102.096-78.477-183.238-142.857-243.429-193.143-19.429-16.381-35.238-29.143-47.429-38.286s-28.667-18.381-49.429-27.714c-20.762-9.333-40.286-14-58.571-14h-1.143c-18.286 0-37.809 4.667-58.571 14s-37.238 18.571-49.429 27.714c-12.191 9.143-28 21.905-47.429 38.286-60.191 50.286-141.333 114.666-243.429 193.143-14.095 11.429-27.238 24-39.429 37.714v-438.857c0-4.952 1.81-9.238 5.429-12.857s7.905-5.429 12.857-5.429h841.143c4.952 0 9.238 1.81 12.857 5.429s5.429 7.905 5.429 12.857v0zM954.058 701.845v14c0 1.714-0.095 4.19-0.286 7.429s-0.762 5.619-1.714 7.143c-0.952 1.524-2 3.238-3.143 5.143s-2.857 3.333-5.143 4.286c-2.286 0.952-4.952 1.429-8 1.429h-841.143c-4.952 0-9.238-1.81-12.857-5.429s-5.429-7.905-5.429-12.857c0-64 28-118.095 84-162.286 73.524-57.905 149.904-118.285 229.143-181.143 2.286-1.905 8.952-7.524 20-16.857s19.809-16.476 26.286-21.429c6.476-4.952 14.952-10.952 25.429-18s20.095-12.286 28.857-15.714c8.762-3.429 16.952-5.143 24.571-5.143h1.143c7.619 0 15.809 1.714 24.571 5.143s18.381 8.667 28.857 15.714c10.476 7.048 18.952 13.048 25.429 18s15.238 12.095 26.286 21.429c11.048 9.333 17.714 14.952 20 16.857 79.238 62.857 155.619 123.238 229.143 181.143 20.572 16.381 39.714 38.381 57.429 66s26.571 52.667 26.571 75.143v0zM1027.201 722.987v-621.714c0-25.143-8.952-46.667-26.857-64.571s-39.428-26.857-64.571-26.857h-841.143c-25.143 0-46.667 8.952-64.571 26.857s-26.857 39.428-26.857 64.571v621.714c0 25.143 8.952 46.667 26.857 64.571s39.428 26.857 64.571 26.857h841.143c25.143 0 46.667-8.952 64.571-26.857s26.857-39.428 26.857-64.571v0z" />
<glyph unicode="&#xe96d;" glyph-name="more-horizontal" d="M228.51 443.733c0-31.547-11.182-58.471-33.483-80.772s-49.225-33.483-80.772-33.483c-31.547 0-58.471 11.182-80.772 33.483s-33.483 49.225-33.483 80.772c0 31.547 11.182 58.471 33.483 80.772s49.288 33.483 80.772 33.483c31.547 0 58.471-11.182 80.772-33.483s33.483-49.225 33.483-80.772zM592.772 524.505c22.301-22.301 33.483-49.225 33.483-80.772s-11.182-58.471-33.483-80.772c-22.301-22.301-49.225-33.483-80.772-33.483s-58.471 11.182-80.772 33.483c-22.301 22.301-33.483 49.288-33.483 80.772s11.182 58.471 33.483 80.772c22.301 22.301 49.288 33.483 80.772 33.483 31.547 0 58.471-11.182 80.772-33.483v0zM828.973 362.961c-22.301 22.301-33.483 49.288-33.483 80.772s11.182 58.471 33.483 80.772c22.301 22.301 49.288 33.483 80.772 33.483 31.547 0 58.471-11.182 80.772-33.483s33.483-49.225 33.483-80.772c0-31.547-11.182-58.471-33.483-80.772s-49.225-33.483-80.772-33.483c-31.547 0-58.471 11.182-80.772 33.483v0z" />
<glyph unicode="&#xe96e;" glyph-name="more-vertical" d="M626.255 45.988c0-31.547-11.182-58.471-33.483-80.772s-49.225-33.483-80.772-33.483c-31.547 0-58.471 11.182-80.772 33.483s-33.483 49.225-33.483 80.772c0 31.547 11.182 58.471 33.483 80.772s49.288 33.483 80.772 33.483c31.547 0 58.471-11.182 80.772-33.483s33.483-49.225 33.483-80.772zM592.772 524.505c22.301-22.301 33.483-49.225 33.483-80.772s-11.182-58.471-33.483-80.772c-22.301-22.301-49.225-33.483-80.772-33.483s-58.471 11.182-80.772 33.483c-22.301 22.301-33.483 49.288-33.483 80.772s11.182 58.471 33.483 80.772c22.301 22.301 49.288 33.483 80.772 33.483 31.547 0 58.471-11.182 80.772-33.483v0zM431.228 760.706c-22.301 22.301-33.483 49.288-33.483 80.772s11.182 58.471 33.483 80.772c22.301 22.301 49.288 33.483 80.772 33.483 31.547 0 58.471-11.182 80.772-33.483s33.483-49.225 33.483-80.772c0-31.547-11.182-58.471-33.483-80.772s-49.225-33.483-80.772-33.483c-31.547 0-58.471 11.182-80.772 33.483v0z" />
<glyph unicode="&#xe96f;" glyph-name="print" d="M74.052 369.326l210.707 1.192v-72.861l-218.206-1.192c-36.233 0-65.616 28.223-65.616 63.053l0.389 384.754c0 34.818 29.383 63.053 65.616 63.053l81.070 0.394 0.258 99.017c0 29.88 26.557 45.874 55.314 48.015h620.405c28.757 0 55.314-15.994 55.961-45.874l-0.258-101.552h79.628c36.233 0 65.616-28.235 65.616-63.053l-0.389-384.754c0-34.83-29.383-63.053-65.616-63.053l-219.928-1v72.861l212.429 1 2.184 362.568h-879.823l0.257-362.568zM219.893 882.493v-73.143h586.763v73.143h-586.763zM733.872 444.162c38.907 0 70.448-31.366 70.448-71.023l0.4-369.542c0-39.225-31.75-71.023-70.448-71.023h-445.446c-38.907 2.098-70.448 33.464-70.448 73.122l-0.4 369.542c0 39.225 31.643 68.648 70.448 68.925h445.446zM291.995 4.876h439.001c-1.467 0-0.372 366.473 0.821 366.473h-439.822c0 0 0.372-366.473 0-366.473z" />
<glyph unicode="&#xe970;" glyph-name="user-disabled" d="M512 955.733c-285.257 0-512-226.743-512-512s226.743-512 512-512 512 226.743 512 512-226.743 512-512 512zM716.8 290.133c14.629-14.629 14.629-36.571 0-51.2s-36.571-14.629-51.2 0l-153.6 153.6-153.6-153.6c-14.629-14.629-36.571-14.629-51.2 0s-14.629 36.571 0 51.2l153.6 153.6-153.6 153.6c-14.629 14.629-14.629 36.571 0 51.2s36.571 14.629 51.2 0l153.6-153.6 153.6 153.6c14.629 14.629 36.571 14.629 51.2 0s14.629-36.571 0-51.2l-153.6-153.6 153.6-153.6z" />
<glyph unicode="&#xe971;" glyph-name="user-enabled" d="M512 955.733c-285.257 0-512-226.743-512-512s226.743-512 512-512 512 226.743 512 512-226.743 512-512 512zM826.514 626.59l-402.286-424.229c-14.629-14.629-43.886-14.629-58.514 0l-168.229 168.229c-14.629 14.629-14.629 43.886 0 58.514s43.886 14.629 58.514 0l138.971-138.971 373.029 394.971c14.629 14.629 43.886 14.629 58.514 0s21.943-43.886 0-58.514z" />
<glyph unicode="&#xe972;" glyph-name="not-activated" d="M512 955.733c-285.257 0-512-226.743-512-512s226.743-512 512-512 512 226.743 512 512-226.743 512-512 512zM797.257 421.79l-226.743-226.743c-14.629-14.629-36.571-14.629-51.2 0s-14.629 36.571 0 51.2l160.914 160.914h-424.229c-21.943 0-36.571 14.629-36.571 36.571s14.629 36.571 36.571 36.571h416.914l-153.6 146.286c-14.629 14.629-14.629 36.571 0 51.2s36.571 14.629 51.2 0l219.429-212.114c21.943-14.629 21.943-29.257 7.314-43.886z" />
<glyph unicode="&#xe973;" glyph-name="chevron-up-small" d="M535.102 629.78c-19.416 18.255-51.18 17.338-69.365-2.002l-275.205-287.208c-17.427-18.534-15.58-46.838 4.123-63.229s49.812-14.65 67.244 3.876l238.524 245.417 258.008-248.433c18.6-17.494 48.762-17.494 67.37 0s18.6 45.855 0 63.349l-290.698 288.229z" />
<glyph unicode="&#xe974;" glyph-name="chevron-down-small" d="M488.898 257.686c19.416-18.255 51.18-17.338 69.365 2.002l275.205 287.208c17.427 18.534 15.58 46.838-4.123 63.229s-49.812 14.65-67.244-3.876l-238.524-245.417-258.008 248.433c-18.6 17.494-48.762 17.494-67.37 0s-18.6-45.855 0-63.349l290.698-288.229z" />
<glyph unicode="&#xe975;" glyph-name="chevron-left-small" d="M332.455 466.029c-17.617-18.738-16.732-49.392 1.932-66.941l277.17-265.587c17.886-16.817 45.2-15.034 61.019 3.979s14.138 48.070-3.74 64.894l-236.839 230.188 239.751 248.99c16.882 17.95 16.882 47.058 0 65.016s-44.253 17.95-61.135 0l-278.157-280.54z" />
<glyph unicode="&#xe976;" glyph-name="roles" d="M170.28 365.422c-113.907 0-156.621-35.595-156.621-71.192 0-78.311 242.052-142.384 519.699-142.384s476.984 71.192 476.984 142.384c0 21.358-56.953 14.239-121.026 0-199.337-35.595-633.605 71.192-719.036 71.192zM689.979 643.070c-21.358 85.43-71.192 92.549-85.43 92.549-56.953 0-64.073-35.595-128.145-35.595-99.668 0-99.668 35.595-128.145 35.595-35.595 0-71.192-14.239-85.43-92.549l-42.715-192.218c0-7.119 7.119-21.358 14.239-21.358 0 0 85.43 0 220.694-35.595s291.886-35.595 291.886-35.595c7.119 0 14.239 7.119 14.239 21.358l-71.192 263.409z" />
<glyph unicode="&#xe977;" glyph-name="search" d="M1008.856 4.484l-273.631 273.631c57.606 72.008 93.611 165.619 93.611 266.43 0 223.225-180.020 403.245-410.446 403.245s-410.446-180.020-410.446-410.446 187.221-410.446 410.446-410.446c100.811 0 194.422 36.004 266.43 93.611l273.631-273.631c14.402-14.402 36.004-14.402 50.406 0 14.402 21.603 14.402 43.205 0 57.606zM418.389 198.905c-187.221 0-338.438 151.217-338.438 338.438s151.217 338.438 338.438 338.438c187.221 0 338.438-151.217 338.438-338.438s-151.217-338.438-338.438-338.438z" />
<glyph unicode="&#xe978;" glyph-name="close" d="M870.4 750.933l-658.286-658.286c-14.629-14.629-36.571-14.629-51.2 0v0c-14.629 14.629-14.629 36.571 0 51.2l658.286 658.286c14.629 14.629 36.571 14.629 51.2 0v0c7.314-14.629 7.314-36.571 0-51.2zM204.8 802.133l658.286-658.286c14.629-14.629 14.629-36.571 0-51.2v0c-14.629-14.629-36.571-14.629-51.2 0l-658.286 658.286c-7.314 14.629-7.314 36.571 0 51.2v0c14.629 7.314 36.571 7.314 51.2 0z" />
<glyph unicode="&#xe979;" glyph-name="phone" d="M270.629 882.59c7.314 0 14.629 0 14.629 0s0 0 0 0 0 0 0-7.314c36.571-58.514 80.457-160.914 80.457-197.486 0 0-7.314-7.314-14.629-7.314 0-7.314-7.314-7.314-7.314-7.314-7.314 0-7.314-7.314-7.314-7.314-29.257-14.629-43.886-43.886-43.886-73.143 0-7.314 0-21.943 7.314-29.257-7.314-7.314 14.629-51.2 95.086-153.6 0 0 0 0 0 0l43.886-51.2c80.457-95.086 117.029-117.029 138.971-131.657 14.629-7.314 29.257-14.629 43.886-14.629 43.886 0 65.829 21.943 80.457 43.886 7.314 7.314 14.629 14.629 21.943 14.629 43.886-14.629 138.971-73.143 190.171-117.029 0 0 0 0 0 0s0-7.314 0-21.943c-21.943-43.886-95.086-117.029-146.286-117.029-102.4 7.314-263.314 109.714-402.286 277.943l-58.514 65.829c-146.286 168.229-219.429 321.829-204.8 424.229 14.629 51.2 109.714 109.714 168.229 109.714zM270.629 955.733c-87.771 0-219.429-73.143-241.371-168.229-14.629-124.343 65.829-299.886 226.743-490.057l51.2-65.829c153.6-182.857 329.143-292.571 460.8-299.886 95.086 0 190.171 102.4 219.429 168.229 14.629 51.2-7.314 87.771-21.943 95.086-58.514 51.2-182.857 124.343-234.057 138.971h-14.629c-36.571-7.314-51.2-21.943-73.143-43.886-7.314-14.629-14.629-14.629-21.943-14.629-7.314 7.314-29.257 14.629-124.343 117.029l-43.886 51.2c-80.457 109.714-95.086 138.971-95.086 138.971 0 7.314 7.314 7.314 21.943 14.629 21.943 14.629 51.2 29.257 58.514 65.829v0 7.314c0 51.2-51.2 182.857-87.771 241.371-7.314 14.629-21.943 43.886-80.457 43.886v0z" />
<glyph unicode="&#xe97a;" glyph-name="favorite" d="M870.4-68.267c-7.314 0-14.629 0-14.629 7.314l-343.771 182.857-336.457-190.171c-14.629 0-29.257 0-43.886 7.314s-14.629 21.943-14.629 36.571l109.714 343.771-219.429 219.429c-7.314 7.314-7.314 21.943-7.314 36.571 7.314 14.629 21.943 21.943 36.571 21.943l299.886 14.629 146.286 321.829c14.629 29.257 51.2 29.257 65.829 0l146.286-321.829 299.886-14.629c14.629 0 29.257-7.314 29.257-21.943 7.314-14.629 0-29.257-7.314-36.571l-219.429-219.429 109.714-343.771c7.314-14.629 0-29.257-14.629-36.571-7.314-7.314-14.629-7.314-21.943-7.314zM512 202.362c7.314 0 14.629 0 14.629-7.314l277.943-153.6-87.771 277.943c-7.314 14.629 0 29.257 7.314 36.571l182.857 175.543-241.371 14.629c-14.629 0-21.943 7.314-29.257 21.943l-124.343 263.314-124.343-263.314c0-14.629-14.629-21.943-29.257-21.943l-241.371-14.629 182.857-175.543c7.314-7.314 14.629-21.943 7.314-36.571l-87.771-277.943 277.943 153.6c0 7.314 7.314 7.314 14.629 7.314z" />
<glyph unicode="&#xe97b;" glyph-name="favorite-filled" d="M870.4-68.267c-7.314 0-14.629 0-14.629 7.314l-343.771 182.857-336.457-190.171c-14.629 0-29.257 0-43.886 7.314s-14.629 21.943-14.629 36.571l109.714 343.771-219.429 219.429c-7.314 7.314-7.314 21.943-7.314 36.571 7.314 14.629 21.943 21.943 36.571 21.943l299.886 14.629 146.286 321.829c14.629 29.257 51.2 29.257 65.829 0l146.286-321.829 299.886-14.629c14.629 0 29.257-7.314 29.257-21.943 7.314-14.629 0-29.257-7.314-36.571l-219.429-219.429 109.714-343.771c7.314-14.629 0-29.257-14.629-36.571-7.314-7.314-14.629-7.314-21.943-7.314z" />
<glyph unicode="&#xe97c;" glyph-name="icon_d3_save" d="M811.886 955.733h-702.171c-58.514 0-109.714-51.2-109.714-109.714v-804.571c0-58.514 51.2-109.714 109.714-109.714h804.571c58.514 0 109.714 51.2 109.714 109.714v702.171l-212.114 212.114zM585.143 882.59v-47.020c0-15.673-15.815-26.122-39.537-26.122h-213.498c-23.722 0-39.537 10.449-39.537 26.122v47.020h292.571zM293.072 4.876v182.857c0 51.2 38.808 108.357 90.008 108.357h263.201c51.2 0 85.535-57.157 85.535-108.357v-182.857h-438.744zM914.286 4.876h-109.388v182.857c0 87.771-71.267 183.513-159.038 183.513h-263.587c-87.771-6.388-162.79-102.13-162.79-189.902v-182.857l-109.768 6.388c-21.943 0-36.571 14.629-36.571 36.571v804.571c0 21.943 14.629 36.571 36.571 36.571h110.635v-36.571c0-109.714 20.698-109.714 79.212-109.714h227.988c2.809 0-13.685 0 58.737 0s72.421 54.009 72.421 109.714v36.571h123.922l168.229-168.229v-672.914c0-21.943-14.629-36.571-36.571-36.571z" />
<glyph unicode="&#xe97d;" glyph-name="icon_d3_export" d="M548.571 590.019v256l102.4-109.714h21.943l29.257 29.257c7.314 7.314 7.314 14.629 0 21.943l-153.6 160.914c-7.314 7.314-7.314 7.314-14.629 7.314h-43.886c-7.314 0-7.314 0-14.629-7.314l-160.914-160.914c-7.314-7.314-7.314-14.629 0-21.943l36.571-29.257h21.943l102.4 102.4v-248.686h-365.714c-58.514 0-109.714-51.2-109.714-109.714v-438.857c0-58.514 51.2-109.714 109.714-109.714h804.571c58.514 0 109.714 51.2 109.714 109.714v438.857c0 58.514-51.2 109.714-109.714 109.714h-365.714zM950.857 41.447c0-21.943-14.629-36.571-36.571-36.571h-804.571c-21.943 0-36.571 14.629-36.571 36.571v438.857c0 21.943 14.629 36.571 36.571 36.571h365.714v-131.657c0-7.314 7.314-14.629 14.629-14.629h43.886c7.314 0 14.629 7.314 14.629 14.629v131.657h365.714c21.943 0 36.571-14.629 36.571-36.571v-438.857zM753.371 297.447h-482.743c-7.314 0-14.629-7.314-14.629-14.629v-43.886c0-7.314 7.314-14.629 14.629-14.629h482.743c7.314 0 14.629 7.314 14.629 14.629v43.886c0 7.314-7.314 14.629-14.629 14.629z" />
<glyph unicode="&#xe97e;" glyph-name="icon_d3_add" d="M914.286 955.733h-804.571c-58.514 0-109.714-51.2-109.714-109.714v-804.571c0-58.514 51.2-109.714 109.714-109.714h804.571c58.514 0 109.714 51.2 109.714 109.714v804.571c0 58.514-51.2 109.714-109.714 109.714v0zM950.857 41.447c0-21.943-14.629-36.571-36.571-36.571h-804.571c-21.943 0-36.571 14.629-36.571 36.571v804.571c0 21.943 14.629 36.571 36.571 36.571h804.571c21.943 0 36.571-14.629 36.571-36.571v-804.571zM548.571 480.304v239.336c0 7.314-7.314 14.629-14.629 14.629h-43.886c-7.314 0-14.629-7.314-14.629-14.629v-239.336h-239.688c-7.314 0-14.629-7.314-14.629-14.629v-43.886c0-7.314 7.314-14.629 14.629-14.629h239.688v-241.626c0-7.314 7.314-14.629 14.629-14.629h43.886c7.314 0 14.629 7.314 14.629 14.629v241.626h242.241c7.314 0 14.629 7.314 14.629 14.629v43.886c0 7.314-7.314 14.629-14.629 14.629-110.572-2.536-242.241 0-242.241 0z" />
<glyph unicode="&#xe97f;" glyph-name="icon_download" d="M478.812 346.635l-120.357 116.75c-14.649 7.268-37.818 11.082-50.579 0s-22.663-36.345-8.015-50.882l186.278-182.172c14.649-14.537 36.622-14.537 51.271 0l183.032 177.522c14.649 14.537 14.649 36.345 0 50.882s-36.622 14.537-51.271 0l-117.115-112.103v494.736c0 21.807-14.649 36.345-36.622 36.345s-36.622-14.537-36.622-36.345v-494.734zM0 292.571v-256.696c0-20.145 16.317-35.875 36.445-35.875h951.111c20.36 0 36.445 16.062 36.445 35.875v256.696c0 20.198-16.374 36.571-36.571 36.571s-36.571-16.374-36.571-36.571v-183.554c0-19.813-16.75-35.875-36.597-35.875h-804.521c-20.212 0-36.597 15.73-36.597 35.875v183.554c0 20.198-16.374 36.571-36.571 36.571s-36.571-16.374-36.571-36.571z" />
<glyph unicode="&#xe980;" glyph-name="icon_meetings_reports" d="M457.032 878.131l-0.001 0.001c8.623 0 17.245 0 21.556-4.311 4.311-2.17 6.482-8.623 6.482-15.089v-441.958h444.069c15.103-2.112 17.245-12.904 17.245-23.697 0-267.323-194.018-461.343-463.484-461.343-265.168 0-482.899 219.886-482.899 485.040 2.156 267.338 194.019 461.358 457.032 461.358zM414.638 808.597c-191.599-27.177-339.834-185.371-341.496-391.369 0-225.418 185.102-412.352 410.532-412.352 203.84 0 358.493 120.373 389.75 309.263 1.905 11.51 5.415 28.625 5.415 28.625h-464.201v465.833zM562.656 955.733c-12.933 0-21.571-10.778-21.571-21.556v-463.499h461.373c12.919 0 21.541 10.778 21.541 21.556 0 122.884-47.423 239.302-135.818 327.681-86.195 86.239-202.641 135.818-325.526 135.818h0.001z" />
<glyph unicode="&#xe981;" glyph-name="icon_service_plan" d="M233.229 116.606c1.35-2.068 2.931-4.028 4.745-5.843 13.864-13.864 37.281-14.439 51.37-0.35l112.243 112.243c13.768 13.768 13.932 37.088-0.35 51.37-13.864 13.864-37.281 14.439-51.37 0.35l-85.484-85.485-26.378 26.378c-15.032 15.032-37.68 14.524-51.962 0.242-13.864-13.864-14.174-37.546 0.242-51.962l46.944-46.944zM233.229 336.034c1.35-2.068 2.931-4.028 4.745-5.843 13.864-13.864 37.281-14.439 51.37-0.35l112.243 112.243c13.768 13.768 13.932 37.088-0.35 51.37-13.864 13.864-37.281 14.439-51.37 0.35l-85.484-85.484-26.378 26.378c-15.032 15.032-37.68 14.524-51.962 0.242-13.864-13.864-14.174-37.546 0.242-51.962l46.944-46.944zM950.36 731.428h-72.631v-73.143h36.498c20.261 0 36.645-16.238 36.645-37.303v-583.68c0-20.626-16.75-37.303-36.645-37.303h-804.498c-20.187 0-36.571 16.238-36.571 37.303v583.68c0 20.626 16.75 37.303 36.571 37.303h36.571v73.143h-72.631c-40.741 0-73.655-32.622-73.655-72.85v-658.871c0-40.302 32.987-72.85 73.655-72.85h876.69c40.741 0 73.655 32.622 73.655 72.85v658.871c0 40.302-32.987 72.85-73.655 72.85zM691.2 804.571c-16.969 83.456-90.77 146.286-179.2 146.286s-162.231-62.83-179.2-146.286h-40.448c-39.79 0-72.923-32.695-72.923-73.070v-146.359h585.143v146.359c0 40.667-32.622 73.070-72.923 73.070h-40.448zM512 731.428c-40.375 0-73.143 32.768-73.143 73.143s32.768 73.143 73.143 73.143c40.375 0 73.143-32.768 73.143-73.143s-32.768-73.143-73.143-73.143zM512 182.857c0 20.198 15.714 36.571 36.403 36.571h292.908c20.105 0 36.403-16.964 36.403-36.571 0-20.198-15.714-36.571-36.403-36.571h-292.908c-20.105 0-36.403 16.964-36.403 36.571zM512 402.286c0 20.198 15.714 36.571 36.403 36.571h292.908c20.105 0 36.403-16.964 36.403-36.571 0-20.198-15.714-36.571-36.403-36.571h-292.908c-20.105 0-36.403 16.964-36.403 36.571z" />
</font>
</defs>
</svg>
